<svg width="676" height="505" viewBox="0 0 676 505" fill="none" xmlns="http://www.w3.org/2000/svg">
<path d="M591.842 434.041L71.8423 419.141C60.1505 418.816 48.9781 414.24 40.4183 406.269C31.8584 398.298 26.4984 387.48 25.3423 375.841L0.242277 127.841C-0.425973 121.202 0.291823 114.498 2.35017 108.151C4.40852 101.805 7.76257 95.9549 12.1998 90.9724C16.6371 85.9899 22.0608 81.9833 28.1274 79.2065C34.1939 76.4296 40.7711 74.943 47.4423 74.8408L626.242 66.8408C633.125 66.7478 639.948 68.1298 646.253 70.8938C652.557 73.6579 658.196 77.7399 662.791 82.8654C667.386 87.9908 670.83 94.0408 672.891 100.608C674.953 107.176 675.584 114.109 674.742 120.941L641.042 391.841C639.54 403.726 633.672 414.628 624.579 422.427C615.486 430.227 603.818 434.366 591.842 434.041Z" fill="#EAF9F3"/>
<mask id="mask0_605_723" style="mask-type:luminance" maskUnits="userSpaceOnUse" x="0" y="66" width="676" height="369">
<path d="M591.842 434.041L71.8423 419.141C60.1505 418.816 48.9781 414.24 40.4183 406.269C31.8584 398.298 26.4984 387.48 25.3423 375.841L0.242277 127.841C-0.425973 121.202 0.291823 114.498 2.35017 108.151C4.40852 101.805 7.76257 95.9549 12.1998 90.9724C16.6371 85.9899 22.0608 81.9833 28.1274 79.2065C34.1939 76.4296 40.7711 74.943 47.4423 74.8408L626.242 66.8408C633.125 66.7478 639.948 68.1298 646.253 70.8938C652.557 73.6579 658.196 77.7399 662.791 82.8654C667.386 87.9908 670.83 94.0408 672.891 100.608C674.953 107.176 675.584 114.109 674.742 120.941L641.042 391.841C639.54 403.726 633.672 414.628 624.579 422.427C615.486 430.227 603.818 434.366 591.842 434.041Z" fill="white"/>
</mask>
<g mask="url(#mask0_605_723)">
<path d="M444.842 560.341H860.342C864.321 560.341 868.136 558.761 870.949 555.948C873.762 553.135 875.342 549.319 875.342 545.341V309.641C875.342 305.663 873.762 301.848 870.949 299.034C868.136 296.221 864.321 294.641 860.342 294.641H444.842C440.864 294.641 437.049 296.221 434.236 299.034C431.423 301.848 429.842 305.663 429.842 309.641V545.241C429.834 549.231 431.409 553.061 434.221 555.892C437.033 558.723 440.852 560.323 444.842 560.341Z" stroke="#B8D8C7" stroke-width="1.8" stroke-linecap="round" stroke-linejoin="round"/>
<path d="M-59.7577 497.741H359.342C363.321 497.741 367.136 496.161 369.949 493.348C372.762 490.534 374.342 486.719 374.342 482.741V138.441C374.342 134.463 372.762 130.647 369.949 127.834C367.136 125.021 363.321 123.441 359.342 123.441H-59.7577C-63.736 123.441 -67.5513 125.021 -70.3643 127.834C-73.1774 130.647 -74.7577 134.463 -74.7577 138.441V482.741C-74.7577 486.719 -73.1774 490.534 -70.3643 493.348C-67.5513 496.161 -63.736 497.741 -59.7577 497.741Z" stroke="#B8D8C7" stroke-width="1.8" stroke-linecap="round" stroke-linejoin="round"/>
<path d="M103.342 228.341H123.642C124.7 228.344 125.722 227.958 126.514 227.258C127.307 226.558 127.815 225.591 127.942 224.541L129.542 210.141C129.608 209.537 129.546 208.925 129.36 208.346C129.174 207.768 128.869 207.234 128.463 206.782C128.057 206.329 127.561 205.967 127.006 205.718C126.451 205.47 125.85 205.341 125.242 205.341H101.742C101.135 205.343 100.535 205.473 99.9805 205.721C99.4263 205.97 98.9305 206.333 98.5252 206.785C98.1199 207.237 97.8141 207.77 97.6276 208.348C97.441 208.926 97.3779 209.537 97.4423 210.141L99.0423 224.541C99.2028 225.577 99.7206 226.523 100.506 227.217C101.291 227.911 102.295 228.309 103.342 228.341Z" stroke="#B8D8C7" stroke-width="1.8" stroke-linecap="round" stroke-linejoin="round"/>
<path d="M115.942 205.341C115.942 205.341 123.942 204.541 125.542 193.741C125.542 193.741 118.342 195.841 116.042 200.941C116.042 200.941 115.042 189.541 109.642 188.441C109.642 188.441 107.242 196.941 111.042 201.141C111.042 201.141 108.142 196.341 100.742 196.441C101.441 198.547 102.645 200.45 104.249 201.984C105.853 203.518 107.807 204.636 109.942 205.241" fill="#B8D8C7"/>
<path d="M448.042 344.341H538.242C539.354 344.333 540.418 343.888 541.204 343.102C541.989 342.316 542.434 341.253 542.442 340.141V312.741C542.434 311.63 541.989 310.566 541.204 309.78C540.418 308.994 539.354 308.549 538.242 308.541H448.042C446.931 308.549 445.867 308.994 445.081 309.78C444.295 310.566 443.85 311.63 443.842 312.741V340.141C443.829 340.696 443.928 341.249 444.134 341.764C444.34 342.28 444.649 342.749 445.042 343.141C445.435 343.534 445.903 343.843 446.419 344.049C446.935 344.255 447.487 344.355 448.042 344.341Z" stroke="#B8D8C7" stroke-width="1.8" stroke-linecap="round" stroke-linejoin="round"/>
<path d="M482.742 318.241H503.542C503.937 318.231 504.313 318.069 504.592 317.79C504.871 317.511 505.032 317.135 505.042 316.741C505.032 316.346 504.871 315.97 504.592 315.691C504.313 315.412 503.937 315.251 503.542 315.241H482.742C482.348 315.251 481.972 315.412 481.693 315.691C481.414 315.97 481.252 316.346 481.242 316.741C481.252 317.135 481.414 317.511 481.693 317.79C481.972 318.069 482.348 318.231 482.742 318.241Z" fill="#B8D8C7"/>
<path d="M448.042 390.141H538.242C539.354 390.133 540.418 389.688 541.204 388.902C541.989 388.116 542.434 387.052 542.442 385.941V358.541C542.434 357.429 541.989 356.366 541.204 355.58C540.418 354.794 539.354 354.349 538.242 354.341H448.042C446.931 354.349 445.867 354.794 445.081 355.58C444.295 356.366 443.85 357.429 443.842 358.541V385.941C443.829 386.496 443.928 387.048 444.134 387.564C444.34 388.08 444.649 388.548 445.042 388.941C445.435 389.334 445.903 389.643 446.419 389.849C446.935 390.055 447.487 390.155 448.042 390.141Z" stroke="#B8D8C7" stroke-width="1.8" stroke-linecap="round" stroke-linejoin="round"/>
<path d="M482.742 364.041H503.542C503.937 364.031 504.313 363.87 504.592 363.59C504.871 363.311 505.032 362.936 505.042 362.541C505.032 362.146 504.871 361.771 504.592 361.492C504.313 361.212 503.937 361.051 503.542 361.041H482.742C482.348 361.051 481.972 361.212 481.693 361.492C481.414 361.771 481.252 362.146 481.242 362.541C481.252 362.936 481.414 363.311 481.693 363.59C481.972 363.87 482.348 364.031 482.742 364.041Z" fill="#B8D8C7"/>
<path d="M29.3423 375.841H119.542C120.654 375.833 121.717 375.388 122.503 374.602C123.289 373.816 123.734 372.753 123.742 371.641V344.241C123.734 343.13 123.289 342.066 122.503 341.28C121.717 340.494 120.654 340.049 119.542 340.041H29.3423C28.2308 340.049 27.1671 340.494 26.3811 341.28C25.5951 342.066 25.1501 343.13 25.1423 344.241V371.641C25.1286 372.196 25.2278 372.749 25.434 373.264C25.6402 373.78 25.9491 374.249 26.3419 374.641C26.7346 375.034 27.2031 375.343 27.7189 375.549C28.2347 375.755 28.787 375.855 29.3423 375.841Z" stroke="#B8D8C7" stroke-width="1.8" stroke-linecap="round" stroke-linejoin="round"/>
<path d="M64.0423 349.641H84.8423C85.2369 349.631 85.6126 349.47 85.8917 349.191C86.1709 348.911 86.3321 348.536 86.3423 348.141C86.3321 347.746 86.1709 347.371 85.8917 347.092C85.6126 346.813 85.2369 346.651 84.8423 346.641H64.0423C63.6476 346.651 63.272 346.813 62.9928 347.092C62.7137 347.371 62.5524 347.746 62.5423 348.141C62.5382 348.339 62.5742 348.536 62.6481 348.72C62.7221 348.904 62.8324 349.071 62.9725 349.211C63.1126 349.351 63.2796 349.461 63.4634 349.535C63.6473 349.609 63.8442 349.645 64.0423 349.641Z" fill="#B8D8C7"/>
<path d="M145.142 375.841H235.342C236.454 375.833 237.517 375.388 238.303 374.602C239.089 373.816 239.534 372.753 239.542 371.641V344.241C239.534 343.13 239.089 342.066 238.303 341.28C237.517 340.494 236.454 340.049 235.342 340.041H145.142C144.031 340.049 142.967 340.494 142.181 341.28C141.395 342.066 140.95 343.13 140.942 344.241V371.641C140.929 372.196 141.028 372.749 141.234 373.264C141.44 373.78 141.749 374.249 142.142 374.641C142.535 375.034 143.003 375.343 143.519 375.549C144.035 375.755 144.587 375.855 145.142 375.841Z" stroke="#B8D8C7" stroke-width="1.8" stroke-linecap="round" stroke-linejoin="round"/>
<path d="M179.842 349.641H200.642C201.037 349.631 201.413 349.47 201.692 349.191C201.971 348.911 202.132 348.536 202.142 348.141C202.132 347.746 201.971 347.371 201.692 347.092C201.413 346.813 201.037 346.651 200.642 346.641H179.842C179.448 346.651 179.072 346.813 178.793 347.092C178.514 347.371 178.352 347.746 178.342 348.141C178.338 348.339 178.374 348.536 178.448 348.72C178.522 348.904 178.632 349.071 178.773 349.211C178.913 349.351 179.08 349.461 179.263 349.535C179.447 349.609 179.644 349.645 179.842 349.641Z" fill="#B8D8C7"/>
<path d="M562.942 344.341H653.142C654.254 344.333 655.317 343.888 656.103 343.102C656.889 342.316 657.334 341.253 657.342 340.141V312.741C657.334 311.63 656.889 310.566 656.103 309.78C655.317 308.994 654.254 308.549 653.142 308.541H562.942C561.831 308.549 560.767 308.994 559.981 309.78C559.195 310.566 558.75 311.63 558.742 312.741V340.141C558.75 341.253 559.195 342.316 559.981 343.102C560.767 343.888 561.831 344.333 562.942 344.341Z" stroke="#B8D8C7" stroke-width="1.8" stroke-linecap="round" stroke-linejoin="round"/>
<path d="M597.742 318.241H618.542C618.937 318.231 619.313 318.069 619.592 317.79C619.871 317.511 620.032 317.135 620.042 316.741C620.032 316.346 619.871 315.97 619.592 315.691C619.313 315.412 618.937 315.251 618.542 315.241H597.742C597.348 315.251 596.972 315.412 596.693 315.691C596.414 315.97 596.252 316.346 596.242 316.741C596.238 316.939 596.274 317.136 596.348 317.32C596.422 317.503 596.532 317.67 596.673 317.81C596.813 317.951 596.98 318.061 597.163 318.135C597.347 318.209 597.544 318.245 597.742 318.241Z" fill="#B8D8C7"/>
<path d="M562.942 390.141H653.142C654.254 390.133 655.317 389.688 656.103 388.902C656.889 388.116 657.334 387.052 657.342 385.941V358.541C657.334 357.429 656.889 356.366 656.103 355.58C655.317 354.794 654.254 354.349 653.142 354.341H562.942C561.831 354.349 560.767 354.794 559.981 355.58C559.195 356.366 558.75 357.429 558.742 358.541V385.941C558.75 387.052 559.195 388.116 559.981 388.902C560.767 389.688 561.831 390.133 562.942 390.141Z" stroke="#B8D8C7" stroke-width="1.8" stroke-linecap="round" stroke-linejoin="round"/>
<path d="M597.742 364.041H618.542C618.937 364.031 619.313 363.87 619.592 363.59C619.871 363.311 620.032 362.936 620.042 362.541C620.032 362.146 619.871 361.771 619.592 361.492C619.313 361.212 618.937 361.051 618.542 361.041H597.742C597.348 361.051 596.972 361.212 596.693 361.492C596.414 361.771 596.252 362.146 596.242 362.541C596.238 362.739 596.274 362.936 596.348 363.12C596.422 363.304 596.532 363.471 596.673 363.611C596.813 363.751 596.98 363.861 597.163 363.935C597.347 364.009 597.544 364.045 597.742 364.041Z" fill="#B8D8C7"/>
<path d="M-102.058 228.341H352.942C354.158 228.328 355.321 227.839 356.181 226.979C357.04 226.119 357.529 224.957 357.542 223.741V144.041C357.529 142.825 357.04 141.662 356.181 140.803C355.321 139.943 354.158 139.454 352.942 139.441H-102.058C-103.274 139.454 -104.436 139.943 -105.296 140.803C-106.156 141.662 -106.645 142.825 -106.658 144.041V223.741C-106.645 224.957 -106.156 226.119 -105.296 226.979C-104.436 227.839 -103.274 228.328 -102.058 228.341Z" stroke="#B8D8C7" stroke-width="1.8" stroke-linecap="round" stroke-linejoin="round"/>
<path d="M-102.058 327.241H352.942C354.158 327.228 355.321 326.739 356.181 325.879C357.04 325.019 357.529 323.857 357.542 322.641V242.941C357.529 241.725 357.04 240.562 356.181 239.703C355.321 238.843 354.158 238.354 352.942 238.341H-102.058C-103.274 238.354 -104.436 238.843 -105.296 239.703C-106.156 240.562 -106.645 241.725 -106.658 242.941V322.641C-106.645 323.857 -106.156 325.019 -105.296 325.879C-104.436 326.739 -103.274 327.228 -102.058 327.241Z" stroke="#B8D8C7" stroke-width="1.8" stroke-linecap="round" stroke-linejoin="round"/>
<path d="M326.922 178.041H317.022V228.341H326.922V178.041Z" stroke="#B8D8C7" stroke-width="1.8" stroke-linecap="round" stroke-linejoin="round"/>
<path d="M317.082 191.651H306.782V228.251H317.082V191.651Z" stroke="#B8D8C7" stroke-width="1.8" stroke-linecap="round" stroke-linejoin="round"/>
<path d="M28.5423 276.781H18.6423V327.081H28.5423V276.781Z" stroke="#B8D8C7" stroke-width="1.8" stroke-linecap="round" stroke-linejoin="round"/>
<path d="M18.7023 290.491H8.40228V327.091H18.7023V290.491Z" stroke="#B8D8C7" stroke-width="1.8" stroke-linecap="round" stroke-linejoin="round"/>
<path d="M48.7323 276.781H38.8323V327.081H48.7323V276.781Z" stroke="#B8D8C7" stroke-width="1.8" stroke-linecap="round" stroke-linejoin="round"/>
<path d="M58.006 275.727L48.5653 278.708L63.7075 326.674L73.1483 323.694L58.006 275.727Z" stroke="#B8D8C7" stroke-width="1.8" stroke-linecap="round" stroke-linejoin="round"/>
<path d="M38.8823 290.491H28.5823V327.091H38.8823V290.491Z" stroke="#B8D8C7" stroke-width="1.8" stroke-linecap="round" stroke-linejoin="round"/>
<path d="M162.122 178.041H152.222V228.341H162.122V178.041Z" stroke="#B8D8C7" stroke-width="1.8" stroke-linecap="round" stroke-linejoin="round"/>
<path d="M152.272 191.651H141.972V228.251H152.272V191.651Z" stroke="#B8D8C7" stroke-width="1.8" stroke-linecap="round" stroke-linejoin="round"/>
<path d="M259.842 178.041H249.942V228.341H259.842V178.041Z" stroke="#B8D8C7" stroke-width="1.8" stroke-linecap="round" stroke-linejoin="round"/>
<path d="M269.134 176.919L259.694 179.899L274.836 227.866L284.277 224.885L269.134 176.919Z" stroke="#B8D8C7" stroke-width="1.8" stroke-linecap="round" stroke-linejoin="round"/>
<path d="M250.002 191.651H239.702V228.251H250.002V191.651Z" stroke="#B8D8C7" stroke-width="1.8" stroke-linecap="round" stroke-linejoin="round"/>
<path d="M18.8423 184.541L17.7423 169.641C17.7208 169.408 17.7493 169.172 17.8258 168.951C17.9022 168.73 18.025 168.527 18.1858 168.357C18.3466 168.187 18.5418 168.053 18.7585 167.964C18.9751 167.875 19.2082 167.833 19.4423 167.841H28.0423C28.2738 167.842 28.5026 167.89 28.715 167.982C28.9274 168.074 29.1189 168.208 29.2778 168.377C29.4368 168.545 29.5599 168.744 29.6397 168.961C29.7196 169.178 29.7545 169.41 29.7423 169.641L28.6423 184.541C28.6423 184.541 37.6423 190.341 37.5423 195.141C37.4423 198.841 35.2423 216.541 34.2423 224.341C34.115 225.391 33.6069 226.358 32.8144 227.058C32.0219 227.758 30.9999 228.144 29.9423 228.141H17.5423C16.4846 228.144 15.4627 227.758 14.6702 227.058C13.8776 226.358 13.3696 225.391 13.2423 224.341C12.2423 216.541 10.0423 198.841 9.94226 195.141C9.84226 190.341 18.8423 184.541 18.8423 184.541Z" fill="#B8D8C7"/>
<path d="M679.842 409.041L-277.358 399.541" stroke="#B8D8C7" stroke-width="1.8" stroke-linecap="round" stroke-linejoin="round"/>
</g>
<path d="M326.942 264.441L307.442 420.241C307.391 420.64 307.426 421.045 307.543 421.429C307.66 421.813 307.857 422.169 308.122 422.471C308.387 422.774 308.713 423.016 309.078 423.184C309.444 423.351 309.84 423.439 310.242 423.441C310.921 423.448 311.578 423.208 312.093 422.767C312.608 422.326 312.945 421.712 313.042 421.041L335.342 268.341L326.942 264.441Z" fill="#B0D7C0"/>
<path d="M387.542 286.741L407.042 442.541C407.093 442.94 407.059 443.345 406.942 443.729C406.825 444.114 406.627 444.469 406.363 444.771C406.098 445.074 405.772 445.317 405.407 445.484C405.041 445.651 404.644 445.739 404.242 445.741C403.564 445.748 402.906 445.509 402.391 445.067C401.876 444.626 401.539 444.013 401.442 443.341L379.142 290.641L387.542 286.741Z" fill="#B0D7C0"/>
<path d="M292.942 280.641L266.742 435.441C266.678 435.838 266.7 436.245 266.804 436.634C266.909 437.023 267.095 437.386 267.351 437.698C267.606 438.009 267.924 438.264 268.285 438.443C268.645 438.623 269.04 438.725 269.442 438.741C270.123 438.776 270.793 438.562 271.327 438.138C271.86 437.715 272.222 437.111 272.342 436.441L301.242 284.841L292.942 280.641Z" fill="#B0D7C0"/>
<path d="M366.342 265.141L380.742 421.441C380.78 421.837 380.901 422.221 381.098 422.568C381.295 422.914 381.562 423.215 381.883 423.451C382.204 423.687 382.571 423.853 382.96 423.937C383.35 424.021 383.752 424.023 384.142 423.941C384.795 423.801 385.377 423.431 385.78 422.899C386.184 422.367 386.383 421.707 386.342 421.041L375.442 267.041L366.342 265.141Z" fill="#B0D7C0"/>
<path d="M408.042 126.041C397.142 124.241 361.042 250.641 361.042 250.641H395.742C395.742 250.641 378.742 270.941 378.142 272.841C377.542 274.741 371.342 300.441 371.342 300.441C412.842 287.241 403.642 250.541 403.642 250.541C394.742 223.041 407.142 187.841 412.442 158.741C417.742 129.641 408.042 126.041 408.042 126.041Z" fill="#FFE779"/>
<path d="M279.442 293.741C279.442 293.741 280.342 307.441 316.042 309.441C351.742 311.441 397.742 307.941 403.742 267.441C403.842 267.441 286.642 282.341 279.442 293.741Z" fill="#FFE779"/>
<path d="M394.942 247.841C385.242 212.441 422.742 133.341 408.142 125.941C393.142 118.441 335.542 121.541 320.042 134.941C305.542 147.541 298.942 240.941 298.142 252.741C298.059 253.135 298.026 253.538 298.042 253.941C298.042 260.941 297.042 272.741 291.942 276.441C282.042 283.641 265.742 294.541 296.942 302.541C296.942 302.541 310.442 305.641 348.942 304.041C401.042 301.841 395.842 269.741 395.742 250.541C395.71 249.587 395.435 248.658 394.942 247.841Z" fill="white"/>
<path d="M255.742 427.441C255.742 427.441 260.142 448.441 261.142 450.141C262.142 451.841 269.642 455.541 279.842 452.541C290.042 449.541 290.342 445.741 290.342 445.741C290.342 445.741 288.342 421.641 288.342 418.941C288.342 416.241 254.042 411.441 255.742 427.441Z" fill="#B28D93"/>
<path d="M289.342 434.241C288.842 427.641 288.242 420.341 288.242 418.941C288.242 416.241 253.942 411.441 255.642 427.441C255.642 427.441 256.342 430.641 257.142 434.641C267.703 437.513 278.856 437.374 289.342 434.241Z" fill="#896068"/>
<path d="M260.042 446.541C260.042 446.541 258.842 448.441 258.842 458.341C258.842 468.241 243.842 490.641 244.842 496.741C245.842 502.841 288.042 504.341 291.842 499.841C295.642 495.341 291.642 462.141 291.942 458.641C292.242 455.141 293.542 448.541 290.142 444.341C290.142 444.341 286.642 447.841 283.842 448.441C281.042 449.041 278.442 443.341 272.942 442.341C267.442 441.341 263.842 447.841 263.242 448.441C262.642 449.041 260.242 448.241 260.042 446.541Z" fill="#22272E"/>
<path d="M261.842 469.941C261.842 469.941 270.342 464.041 283.842 470.741" stroke="white" stroke-width="1.8" stroke-linecap="round" stroke-linejoin="round"/>
<path d="M258.542 479.341C258.542 479.341 270.342 471.041 283.942 481.041" stroke="white" stroke-width="1.8" stroke-linecap="round" stroke-linejoin="round"/>
<path d="M364.442 438.841C364.442 438.841 371.242 457.841 374.942 461.241C378.642 464.641 388.542 464.941 395.342 461.241C402.142 457.541 401.842 451.941 401.842 451.941C401.842 451.941 395.942 420.841 394.642 420.041C393.342 419.241 364.442 429.741 364.442 438.841Z" fill="#B28D93"/>
<path d="M364.442 438.841C364.442 438.841 366.142 443.541 368.242 448.741C379.842 450.741 389.942 446.841 399.742 441.241C397.942 432.141 395.442 420.541 394.642 420.041C393.242 419.141 364.442 429.741 364.442 438.841Z" fill="#896068"/>
<path d="M371.842 455.941C371.842 455.941 370.942 456.241 373.542 464.641C374.842 469.141 360.442 492.241 360.742 497.941C361.042 503.641 373.042 504.641 382.542 504.941C397.042 505.341 406.542 502.441 407.342 493.141C408.142 483.841 405.642 465.741 405.642 461.741C405.642 457.741 404.342 453.141 401.042 447.741C401.042 447.741 401.342 455.241 398.342 456.641C395.342 458.041 389.742 452.641 385.442 453.741C381.142 454.841 379.342 458.141 377.542 460.041C375.742 461.941 372.342 457.041 371.842 455.941Z" fill="#22272E"/>
<path d="M376.242 475.341C376.242 475.341 384.042 467.541 397.742 473.541" stroke="white" stroke-width="1.8" stroke-linecap="round" stroke-linejoin="round"/>
<path d="M371.942 484.241C371.942 484.241 384.242 474.041 397.642 483.441" stroke="white" stroke-width="1.8" stroke-linecap="round" stroke-linejoin="round"/>
<path d="M294.242 248.541C294.242 248.541 248.342 273.841 236.242 297.041C224.142 320.241 243.042 394.141 242.742 409.741C242.442 425.341 244.442 427.641 253.142 430.941C261.842 434.241 280.742 433.541 288.642 427.641C298.842 420.041 294.142 406.141 291.842 389.341C289.542 372.541 288.442 322.941 288.442 322.941C288.442 322.941 310.042 305.441 320.642 300.241C322.678 299.258 324.886 298.681 327.142 298.541C327.895 298.493 328.648 298.627 329.337 298.932C330.027 299.236 330.633 299.703 331.104 300.292C331.575 300.88 331.897 301.574 332.043 302.314C332.189 303.053 332.154 303.817 331.942 304.541C329.342 313.741 325.642 336.841 327.142 347.441C328.542 357.341 335.442 381.841 348.942 423.341C351.642 431.541 352.542 438.141 355.842 440.941C369.742 452.641 399.942 440.141 403.142 429.241C404.442 424.741 401.142 409.441 396.842 392.741C390.742 368.841 382.542 342.041 383.142 339.141C384.142 334.241 397.042 289.241 393.642 269.041C385.442 220.141 347.542 239.841 294.242 248.541Z" fill="#22272E"/>
<path d="M250.642 327.641C258.982 327.641 265.742 320.253 265.742 311.141C265.742 302.028 258.982 294.641 250.642 294.641C242.303 294.641 235.542 302.028 235.542 311.141C235.542 320.253 242.303 327.641 250.642 327.641Z" stroke="#63737A" stroke-width="1.8" stroke-linecap="round" stroke-linejoin="round"/>
<path d="M350.752 364.057C359.287 362.883 365.194 354.569 363.945 345.487C362.696 336.404 354.764 329.993 346.229 331.167C337.694 332.34 331.787 340.655 333.036 349.737C334.285 358.82 342.217 365.231 350.752 364.057Z" stroke="#63737A" stroke-width="1.8" stroke-linecap="round" stroke-linejoin="round"/>
<path d="M288.442 322.941C288.442 322.941 287.842 316.741 285.942 313.441" stroke="#63737A" stroke-width="1.8" stroke-linecap="round" stroke-linejoin="round"/>
<path d="M328.442 298.241C328.442 298.241 329.542 291.341 327.742 289.341" stroke="#63737A" stroke-width="1.8" stroke-linecap="round" stroke-linejoin="round"/>
<path d="M316.042 290.141C316.042 290.141 323.442 289.541 339.442 290.141" stroke="#63737A" stroke-width="1.8" stroke-linecap="round" stroke-linejoin="round"/>
<path d="M300.142 146.841C300.142 146.841 294.342 148.941 285.342 162.541C280.41 170.063 274.893 177.185 268.842 183.841C268.842 183.841 258.542 172.541 247.742 165.341C236.942 158.141 224.642 146.841 224.642 146.841C224.642 146.841 216.542 142.441 211.442 148.441C206.342 154.441 208.942 163.141 208.942 163.141C208.942 163.141 221.042 179.541 238.842 200.941C250.442 214.941 262.242 224.941 272.142 221.841C285.342 217.741 311.342 194.141 315.842 184.741C320.342 175.341 316.942 143.441 300.142 146.841Z" fill="#6DAFA7"/>
<path d="M268.742 183.841C271.059 186.815 272.852 190.163 274.042 193.741" stroke="#22272E" stroke-width="1.8" stroke-linecap="round" stroke-linejoin="round"/>
<path d="M225.042 147.341C225.042 147.341 217.042 140.741 211.342 141.341C203.942 142.141 204.042 140.441 199.342 141.441C197.142 141.941 193.142 143.541 188.942 148.741C186.845 151.226 184.94 153.867 183.242 156.641C183.242 156.641 178.842 147.241 176.142 148.741C173.442 150.241 179.842 164.641 182.042 166.141C184.242 167.641 190.742 165.041 193.042 166.141C195.342 167.241 201.542 165.241 201.542 165.241L210.042 163.141L212.242 165.541C212.592 165.916 213.042 166.181 213.539 166.306C214.036 166.43 214.558 166.407 215.042 166.241C218.443 164.859 221.17 162.204 222.642 158.841C226.142 151.541 225.042 147.341 225.042 147.341Z" fill="#B28D93"/>
<path d="M183.242 156.641C183.242 156.641 178.842 147.241 176.142 148.741C173.442 150.241 179.842 164.641 182.042 166.141C184.242 167.641 190.742 165.041 193.042 166.141" stroke="#89555F" stroke-width="1.8" stroke-linecap="round" stroke-linejoin="round"/>
<path d="M214.742 153.741C214.742 153.741 211.842 161.341 208.242 166.241C204.642 171.141 199.242 171.341 196.842 169.741C194.442 168.141 197.642 157.141 198.342 154.441C199.042 151.741 201.242 149.241 202.642 152.241C203.742 154.541 202.142 160.041 202.442 164.441" fill="#B28D93"/>
<path d="M198.142 168.841C198.142 168.841 195.042 170.741 193.242 170.141C191.442 169.541 190.342 168.241 190.042 165.541C189.742 162.841 190.742 154.741 190.642 152.641C190.542 150.541 193.842 148.841 195.242 153.641C196.642 158.441 195.942 162.641 196.842 163.641" fill="#B28D93"/>
<path d="M191.342 167.441C189.868 168.176 188.278 168.649 186.642 168.841C184.242 169.041 183.142 167.441 182.342 162.541C181.442 156.641 180.742 150.641 182.842 150.341C184.942 150.041 186.042 153.241 186.842 156.541C187.642 159.841 188.142 161.941 188.642 162.041" fill="#B28D93"/>
<path d="M200.342 141.341C200.342 141.341 194.642 141.741 192.542 141.741C190.442 141.741 184.942 140.341 183.742 142.041C182.542 143.741 185.942 146.841 192.042 147.641C198.142 148.441 204.042 143.641 200.342 141.341Z" fill="#B28D93"/>
<path d="M214.742 170.841C214.742 170.841 222.642 173.441 228.142 165.541C233.042 158.541 231.142 152.541 231.142 152.541" stroke="#22272E" stroke-width="1.8" stroke-linecap="round" stroke-linejoin="round"/>
<path d="M256.142 217.841C256.142 217.841 254.242 215.541 259.142 214.141C264.042 212.741 283.142 211.941 280.842 217.441" stroke="#22272E" stroke-width="1.8" stroke-linecap="round" stroke-linejoin="round"/>
<path d="M214.742 153.741C214.742 153.741 211.842 161.341 208.242 166.241C204.642 171.141 199.242 171.341 196.842 169.741C194.442 168.141 197.642 157.141 198.342 154.441C199.042 151.741 201.242 149.241 202.642 152.241C203.742 154.541 202.142 160.041 202.442 164.441" stroke="#89555F" stroke-width="1.8" stroke-linecap="round" stroke-linejoin="round"/>
<path d="M196.242 169.741C195.316 170.209 194.259 170.35 193.242 170.141C191.442 169.541 190.342 168.241 190.042 165.541C189.742 162.841 190.742 154.741 190.642 152.641C190.542 150.541 193.842 148.841 195.242 153.641C196.242 157.241 196.142 160.341 196.442 162.241" stroke="#89555F" stroke-width="1.8" stroke-linecap="round" stroke-linejoin="round"/>
<path d="M190.542 167.741C189.311 168.3 187.991 168.638 186.642 168.741C184.242 168.941 183.142 167.341 182.342 162.441C181.442 156.541 180.742 150.541 182.842 150.241C184.942 149.941 186.042 153.141 186.842 156.441C187.642 159.741 188.142 161.841 188.642 161.941" stroke="#89555F" stroke-width="1.8" stroke-linecap="round" stroke-linejoin="round"/>
<path d="M190.242 147.441C191.941 145.743 193.818 144.234 195.842 142.941" stroke="#89555F" stroke-width="1.8" stroke-linecap="round" stroke-linejoin="round"/>
<path d="M311.142 93.5408C311.043 91.7352 311.143 89.9242 311.442 88.1408C312.242 83.9408 314.342 75.1408 317.842 72.2408C323.042 67.9408 325.842 74.3408 325.842 74.3408C325.842 74.3408 329.442 69.6408 332.842 70.1408C336.242 70.6408 338.042 74.6408 338.042 74.6408C338.042 74.6408 343.542 70.1408 346.842 72.3408C348.849 73.6642 350.334 75.6437 351.042 77.9408C351.042 77.9408 354.542 73.9408 358.242 75.5408C361.942 77.1408 362.642 86.6408 362.642 86.6408C362.642 86.6408 366.342 88.7408 367.142 96.0408C368.042 103.841 364.242 115.341 356.442 128.541C356.442 128.541 340.342 99.5408 330.142 95.4408C319.942 91.3408 320.042 98.9408 316.842 99.1408C314.042 99.2408 311.642 98.9408 311.142 93.5408Z" fill="#22272E"/>
<path d="M313.142 147.641C313.142 147.641 300.642 149.141 315.242 135.941C327.842 124.541 369.842 127.741 375.242 137.541C379.242 144.841 384.342 164.341 367.342 176.041C350.342 187.741 320.742 175.341 313.142 147.641Z" fill="#6DAFA7"/>
<path d="M337.142 143.941C337.142 143.941 348.842 143.441 358.642 143.041C368.442 142.641 382.742 142.841 390.642 153.641C399.742 165.941 386.042 208.341 384.042 219.141C382.042 229.941 389.742 242.941 389.342 251.841C389.142 256.941 382.742 270.341 354.342 272.841C322.242 275.741 293.942 269.141 290.842 250.641C288.742 238.241 296.942 229.541 294.142 209.341C292.642 198.741 290.742 164.441 294.342 154.741C297.942 145.041 303.942 141.841 337.142 143.941Z" fill="#FFE779"/>
<path d="M325.142 134.141C325.142 134.141 323.742 145.241 323.142 148.141C322.542 151.041 324.142 159.241 335.742 159.141C348.242 159.041 356.042 149.041 356.342 145.041C356.642 141.041 355.642 121.741 357.342 115.341C359.042 108.941 343.042 112.641 336.142 116.641C329.242 120.641 324.442 130.841 325.142 134.141Z" fill="#B28D93"/>
<path d="M345.842 133.241C339.342 134.741 331.342 140.341 324.442 139.241C324.242 140.941 323.942 142.741 323.742 144.341C332.942 145.841 341.642 140.041 345.842 133.241Z" fill="#896068"/>
<path d="M324.142 141.641C324.142 141.641 322.542 153.141 332.242 158.841C332.242 158.841 343.442 157.841 351.642 149.841C353.156 148.336 354.351 146.543 355.159 144.568C355.966 142.592 356.369 140.475 356.342 138.341V137.441C356.342 137.441 372.042 137.641 376.542 142.341C385.142 151.341 349.842 165.641 330.642 168.641C330.642 168.641 312.842 158.741 308.642 148.641C304.442 138.541 322.742 142.041 324.142 141.641Z" fill="#6DAFA7"/>
<path d="M327.342 162.341C324.317 171.859 322.371 181.688 321.542 191.641" stroke="#22272E" stroke-width="1.8" stroke-linecap="round" stroke-linejoin="round"/>
<path d="M323.842 192.841C323.942 191.541 323.242 187.541 321.942 187.441C320.642 187.341 319.142 191.141 319.042 192.441C318.998 193.076 319.203 193.703 319.614 194.188C320.025 194.674 320.609 194.98 321.242 195.041C321.56 195.081 321.883 195.055 322.19 194.964C322.497 194.873 322.782 194.72 323.026 194.513C323.271 194.306 323.47 194.05 323.61 193.763C323.75 193.475 323.83 193.161 323.842 192.841Z" fill="#6DAFA7"/>
<path d="M339.042 162.641C338.271 172.583 338.64 182.582 340.142 192.441" stroke="#22272E" stroke-width="1.8" stroke-linecap="round" stroke-linejoin="round"/>
<path d="M342.742 193.241C342.542 191.941 340.942 188.241 339.642 188.441C338.342 188.641 337.742 192.641 337.942 193.941C338.039 194.589 338.387 195.173 338.911 195.566C339.435 195.959 340.093 196.13 340.742 196.041C341.367 195.912 341.921 195.552 342.291 195.033C342.662 194.514 342.823 193.874 342.742 193.241Z" fill="#6DAFA7"/>
<path d="M302.542 238.241C305.767 233.039 307.847 227.209 308.642 221.141C308.736 220.2 309.199 219.334 309.93 218.734C310.661 218.134 311.601 217.849 312.542 217.941C319.942 218.741 336.442 220.241 348.842 219.141C349.316 219.098 349.793 219.15 350.246 219.294C350.699 219.437 351.119 219.669 351.482 219.976C351.845 220.283 352.143 220.659 352.359 221.082C352.576 221.505 352.706 221.967 352.742 222.441C353.142 226.741 355.042 234.041 362.442 241.141C363.051 241.643 363.444 242.358 363.542 243.141C364.507 248.047 364.943 253.042 364.842 258.041C364.442 264.941 318.042 269.641 302.042 255.441C301.659 255.083 301.354 254.649 301.148 254.167C300.941 253.685 300.837 253.165 300.842 252.641C300.942 249.941 301.342 244.341 302.042 239.741C302.116 239.215 302.286 238.706 302.542 238.241Z" fill="#6DAFA7"/>
<path d="M312.042 98.2411C312.042 98.2411 311.842 108.041 310.942 116.441C310.042 124.841 310.942 136.041 324.442 139.541C337.942 143.041 351.042 132.841 355.942 119.441C360.842 106.041 361.042 87.9411 343.842 80.8411C326.642 73.7411 312.842 82.6411 312.042 98.2411Z" fill="#B28D93"/>
<path d="M362.342 106.841C361.042 113.141 360.142 116.541 360.142 116.541L355.942 112.141C355.942 112.141 348.742 111.141 347.742 98.2411C347.669 97.1557 347.317 96.1075 346.722 95.1969C346.126 94.2864 345.307 93.544 344.342 93.0411C338.442 89.9411 335.342 94.5411 323.842 93.7411C319.942 93.4411 313.942 92.8411 314.142 86.8411C314.642 71.2411 338.742 72.4411 350.142 79.5411C361.542 86.6411 363.642 100.641 362.342 106.841Z" fill="#22272E"/>
<path d="M351.142 113.041C351.142 113.041 353.742 107.141 358.042 107.741C362.642 108.341 363.042 122.141 351.142 122.941" fill="#B28D93"/>
<path d="M318.342 105.341C318.524 106.7 318.558 108.075 318.442 109.441C318.379 110.839 318.11 112.221 317.642 113.541C317.542 113.841 317.342 114.241 317.242 114.541C317.142 114.841 317.042 115.041 316.942 115.341C316.821 115.772 316.857 116.233 317.042 116.641C317.725 117.666 318.755 118.412 319.942 118.741C319.223 118.941 318.462 118.941 317.742 118.741C316.95 118.541 316.247 118.084 315.742 117.441C315.446 117.097 315.239 116.685 315.142 116.241C315.042 115.813 315.042 115.368 315.142 114.941C315.243 114.563 315.377 114.195 315.542 113.841C315.655 113.564 315.789 113.297 315.942 113.041C316.942 110.541 317.442 107.941 318.342 105.341Z" fill="#22272E"/>
<path d="M323.942 126.941C323.942 126.941 324.642 125.441 326.342 126.741C328.042 128.041 328.742 127.541 329.642 126.441C330.542 125.341 330.942 127.441 332.942 126.641" stroke="#22272E" stroke-width="1.8" stroke-linecap="round" stroke-linejoin="round"/>
<path d="M332.542 102.841C332.374 102.509 332.277 102.145 332.257 101.774C332.238 101.402 332.295 101.03 332.427 100.682C332.559 100.334 332.761 100.017 333.022 99.752C333.283 99.4866 333.596 99.2785 333.942 99.1408C335.942 98.2408 339.242 99.7408 341.142 101.741C343.042 103.741 342.042 104.741 339.742 103.741C337.442 102.741 336.442 102.541 334.442 103.241C334.127 103.397 333.768 103.442 333.423 103.37C333.078 103.297 332.768 103.111 332.542 102.841Z" fill="#22272E"/>
<path d="M318.342 101.841C318.65 101.284 318.749 100.635 318.62 100.012C318.492 99.3882 318.145 98.8312 317.642 98.4409C316.242 97.4409 313.942 98.4409 312.742 100.041C311.642 101.441 312.142 102.241 313.642 101.841C315.142 101.441 315.742 101.241 317.042 102.041C317.247 102.17 317.491 102.221 317.73 102.185C317.969 102.148 318.186 102.026 318.342 101.841Z" fill="#22272E"/>
<path d="M358.342 113.241C358.005 113.037 357.632 112.901 357.242 112.841C357.137 112.826 357.03 112.847 356.939 112.902C356.848 112.956 356.778 113.041 356.742 113.141C356.483 113.741 356.347 114.387 356.342 115.041C356.312 115.982 356.073 116.904 355.642 117.741C355.498 117.972 355.309 118.17 355.085 118.325C354.862 118.48 354.609 118.587 354.342 118.641C354.119 118.723 353.88 118.757 353.642 118.741C353.442 118.741 353.142 118.641 352.942 118.641C353.742 118.141 354.342 117.641 354.342 117.141C354.342 116.641 354.442 115.841 354.542 114.941C354.573 113.918 355.004 112.949 355.742 112.241C355.988 112.01 356.306 111.868 356.642 111.841C356.954 111.837 357.262 111.905 357.542 112.041C357.909 112.364 358.185 112.778 358.342 113.241Z" fill="#22272E"/>
<path d="M315.742 110.541C315.934 110.569 316.13 110.557 316.316 110.505C316.503 110.454 316.677 110.364 316.828 110.242C316.978 110.12 317.102 109.968 317.19 109.795C317.279 109.623 317.331 109.434 317.342 109.241L317.442 108.341C317.47 108.149 317.458 107.954 317.407 107.767C317.355 107.58 317.266 107.406 317.144 107.255C317.021 107.105 316.869 106.982 316.697 106.893C316.525 106.804 316.336 106.753 316.142 106.741C315.951 106.713 315.755 106.725 315.568 106.776C315.381 106.828 315.207 106.917 315.057 107.04C314.906 107.162 314.783 107.314 314.695 107.486C314.606 107.659 314.554 107.847 314.542 108.041L314.442 108.941C314.411 109.133 314.421 109.33 314.471 109.518C314.521 109.706 314.611 109.881 314.733 110.032C314.856 110.184 315.01 110.307 315.183 110.395C315.357 110.482 315.548 110.532 315.742 110.541Z" fill="#22272E"/>
<path d="M333.642 112.241C333.834 112.269 334.029 112.257 334.216 112.206C334.403 112.154 334.577 112.065 334.728 111.942C334.878 111.82 335.001 111.668 335.09 111.496C335.179 111.323 335.23 111.134 335.242 110.941L335.342 110.041C335.37 109.849 335.358 109.654 335.307 109.467C335.255 109.28 335.166 109.106 335.044 108.956C334.921 108.805 334.769 108.682 334.597 108.593C334.425 108.505 334.236 108.453 334.042 108.441C333.851 108.413 333.655 108.425 333.468 108.476C333.281 108.528 333.107 108.618 332.957 108.74C332.806 108.862 332.683 109.014 332.594 109.186C332.506 109.359 332.454 109.548 332.442 109.741L332.342 110.641C332.318 111.022 332.439 111.399 332.68 111.695C332.92 111.992 333.264 112.186 333.642 112.241Z" fill="#22272E"/>
<path d="M385.242 151.341C386.39 151.323 387.53 151.535 388.595 151.965C389.66 152.394 390.628 153.032 391.442 153.841C393.442 155.741 397.642 159.741 405.842 167.441C419.042 179.941 420.842 182.341 420.842 182.341C420.842 182.341 432.442 191.441 433.642 202.741C434.842 214.041 427.242 229.241 407.442 216.541C387.642 203.841 378.042 195.341 374.042 186.741C370.442 179.041 372.542 151.641 385.242 151.341Z" fill="#6DAFA7"/>
<path d="M414.942 193.241C418.632 185.623 423.681 178.744 429.842 172.941C440.242 163.041 452.542 150.841 454.842 148.441C457.142 146.041 462.742 140.541 470.342 146.441C477.942 152.341 473.542 162.641 473.542 162.641C473.542 162.641 460.242 184.041 449.242 202.241C438.242 220.441 427.042 226.441 412.842 219.541C398.642 212.641 414.942 193.241 414.942 193.241Z" fill="#6DAFA7"/>
<path d="M454.842 149.941C454.842 149.941 460.542 142.241 462.842 139.541C465.142 136.841 469.342 132.741 474.842 134.341C480.342 135.941 483.242 132.541 487.442 136.941C491.642 141.341 494.542 149.441 497.242 152.441C499.942 155.441 499.242 156.241 503.542 156.141C507.842 156.041 511.342 157.041 509.542 159.441C507.742 161.841 496.042 162.441 494.442 162.241C492.842 162.041 485.342 163.041 483.442 162.141C481.542 161.241 481.842 162.041 480.242 161.141C478.642 160.241 474.542 158.241 474.542 158.241C473.729 159.827 472.721 161.305 471.542 162.641C469.842 164.441 462.442 164.141 457.642 158.541C453.542 153.741 454.842 149.941 454.842 149.941Z" fill="#B28D93"/>
<path d="M497.242 152.541C499.942 155.541 499.242 156.341 503.542 156.241C507.842 156.141 511.342 157.141 509.542 159.541C507.742 161.941 496.042 162.541 494.442 162.341" stroke="#89555F" stroke-width="1.8" stroke-linecap="round" stroke-linejoin="round"/>
<path d="M480.642 159.041C480.842 153.741 482.542 149.541 484.142 150.141C485.742 150.741 486.642 162.041 482.842 164.641C479.042 167.241 468.842 153.241 466.842 152.341" fill="#B28D93"/>
<path d="M482.342 163.741C482.342 163.741 484.442 167.841 487.542 165.841C490.642 163.841 493.742 154.641 494.342 152.641C494.942 150.641 491.142 149.841 488.642 154.741C486.142 159.641 484.342 160.341 484.342 160.341" fill="#B28D93"/>
<path d="M488.342 164.141C488.792 164.892 489.476 165.475 490.289 165.8C491.102 166.125 491.999 166.174 492.842 165.941C495.942 165.141 499.942 158.941 501.842 156.941C503.742 154.941 501.342 152.341 498.042 154.741C494.742 157.141 492.342 159.441 490.742 159.941" fill="#B28D93"/>
<path d="M486.042 135.841C486.042 135.841 488.442 137.041 491.542 141.241C494.642 145.441 500.642 146.041 501.342 148.241C502.042 150.441 495.742 151.341 490.742 148.941C485.742 146.541 483.842 136.341 486.042 135.841Z" fill="#B28D93"/>
<path d="M448.542 154.741C448.206 157.022 448.461 159.352 449.284 161.506C450.107 163.66 451.47 165.566 453.242 167.041C455.279 168.987 457.834 170.305 460.601 170.837C463.367 171.369 466.229 171.093 468.842 170.041" stroke="#22272E" stroke-width="1.8" stroke-linecap="round" stroke-linejoin="round"/>
<path d="M412.742 219.441C412.742 219.441 410.442 216.041 418.042 214.341C425.642 212.641 438.542 211.741 437.242 216.941" stroke="#22272E" stroke-width="1.8" stroke-linecap="round" stroke-linejoin="round"/>
<path d="M480.642 159.041C480.842 153.741 482.542 149.541 484.142 150.141C485.742 150.741 486.642 162.041 482.842 164.641C479.042 167.241 468.842 153.241 466.842 152.341" stroke="#89555F" stroke-width="1.8" stroke-linecap="round" stroke-linejoin="round"/>
<path d="M487.542 165.841C490.642 163.941 493.742 154.641 494.342 152.641C494.942 150.641 491.142 149.841 488.642 154.741C487.812 156.595 486.661 158.287 485.242 159.741" stroke="#89555F" stroke-width="1.8" stroke-linecap="round" stroke-linejoin="round"/>
<path d="M489.142 165.041C489.636 165.485 490.237 165.793 490.886 165.933C491.535 166.073 492.209 166.042 492.842 165.841C495.942 165.041 499.942 158.841 501.842 156.841C503.742 154.841 501.342 152.241 498.042 154.641C495.442 156.441 493.442 158.341 491.942 159.241" stroke="#89555F" stroke-width="1.8" stroke-linecap="round" stroke-linejoin="round"/>
<path d="M495.742 150.341C495.742 150.341 493.042 145.741 492.042 144.441" stroke="#89555F" stroke-width="1.8" stroke-linecap="round" stroke-linejoin="round"/>
<path d="M421.342 182.641C421.342 182.641 415.742 189.141 414.542 196.941" stroke="#22272E" stroke-width="1.8" stroke-linecap="round" stroke-linejoin="round"/>
<path d="M114.942 211.841H80.3423C79.6547 211.803 78.9962 211.551 78.4585 211.121C77.9207 210.69 77.5306 210.103 77.3423 209.441L72.3423 188.741C72.2543 188.453 72.2374 188.148 72.2932 187.852C72.349 187.556 72.4758 187.278 72.6627 187.042C72.8495 186.806 73.0909 186.619 73.366 186.497C73.6412 186.375 73.9419 186.321 74.2423 186.341H108.842C109.53 186.379 110.188 186.631 110.726 187.061C111.264 187.491 111.654 188.078 111.842 188.741L116.842 209.441C116.93 209.729 116.947 210.034 116.891 210.33C116.836 210.625 116.709 210.903 116.522 211.139C116.335 211.375 116.094 211.563 115.819 211.685C115.543 211.807 115.243 211.861 114.942 211.841Z" fill="#6DAFA7"/>
<path d="M72.8423 186.841L92.4423 197.841C92.9984 198.232 93.662 198.443 94.3423 198.443C95.0225 198.443 95.6861 198.232 96.2423 197.841L110.542 186.841" stroke="#22272E" stroke-width="1.8" stroke-linecap="round" stroke-linejoin="round"/>
<path d="M589.142 213.741L510.342 209.041C509.898 209.017 509.464 208.891 509.076 208.673C508.688 208.455 508.356 208.15 508.104 207.783C507.853 207.415 507.689 206.995 507.627 206.554C507.564 206.113 507.603 205.664 507.742 205.241L529.742 135.341C530.038 134.456 530.581 133.674 531.308 133.089C532.035 132.504 532.914 132.14 533.842 132.041L616.042 126.041C616.52 126 617.001 126.078 617.441 126.269C617.882 126.46 618.268 126.757 618.565 127.133C618.862 127.51 619.062 127.954 619.145 128.427C619.228 128.899 619.193 129.385 619.042 129.841L593.842 210.441C593.563 211.45 592.941 212.331 592.084 212.933C591.226 213.535 590.187 213.821 589.142 213.741Z" fill="#63737A"/>
<path d="M586.242 211.941L507.442 207.241C506.998 207.217 506.565 207.091 506.177 206.873C505.788 206.655 505.456 206.35 505.204 205.983C504.953 205.615 504.79 205.195 504.727 204.754C504.664 204.313 504.703 203.864 504.842 203.441L526.842 133.541C527.138 132.656 527.681 131.874 528.408 131.289C529.135 130.704 530.015 130.34 530.942 130.241L613.142 124.241C613.62 124.2 614.101 124.279 614.541 124.469C614.982 124.66 615.368 124.957 615.665 125.333C615.962 125.71 616.162 126.155 616.245 126.627C616.328 127.1 616.293 127.585 616.142 128.041L590.942 208.641C590.663 209.65 590.041 210.531 589.184 211.133C588.326 211.735 587.287 212.021 586.242 211.941Z" fill="#22272E"/>
<path d="M545.842 143.741L531.942 144.441C531.831 144.446 531.72 144.424 531.619 144.377C531.517 144.33 531.429 144.259 531.36 144.171C531.292 144.083 531.245 143.98 531.225 143.87C531.204 143.761 531.21 143.648 531.242 143.541L532.242 140.341C532.319 140.11 532.467 139.908 532.664 139.765C532.861 139.621 533.098 139.543 533.342 139.541L547.342 138.741C547.454 138.736 547.565 138.758 547.666 138.805C547.767 138.852 547.856 138.922 547.924 139.01C547.993 139.099 548.039 139.202 548.06 139.311C548.08 139.421 548.074 139.534 548.042 139.641L546.942 142.941C546.832 143.149 546.675 143.329 546.485 143.468C546.294 143.607 546.074 143.7 545.842 143.741Z" fill="#FFE779"/>
<path d="M516.842 198.041C516.511 198.025 516.188 197.935 515.897 197.777C515.607 197.618 515.355 197.396 515.163 197.126C514.97 196.857 514.841 196.547 514.786 196.22C514.73 195.894 514.75 195.559 514.842 195.241L521.442 174.441C521.575 174.012 521.84 173.636 522.199 173.367C522.558 173.097 522.993 172.948 523.442 172.941C523.779 172.94 524.111 173.02 524.411 173.173C524.711 173.327 524.969 173.55 525.165 173.825C525.361 174.099 525.488 174.416 525.537 174.749C525.585 175.082 525.552 175.423 525.442 175.741L518.842 196.541C518.768 197.001 518.518 197.415 518.145 197.695C517.772 197.975 517.305 198.099 516.842 198.041Z" fill="#FFE779"/>
<path d="M526.742 198.441C526.399 198.432 526.063 198.342 525.761 198.179C525.459 198.015 525.2 197.782 525.005 197.5C524.81 197.217 524.685 196.892 524.639 196.552C524.593 196.212 524.629 195.865 524.742 195.541L535.342 161.841C535.496 161.398 535.778 161.009 536.151 160.725C536.525 160.44 536.974 160.272 537.442 160.241C537.795 160.24 538.143 160.321 538.46 160.478C538.776 160.634 539.051 160.862 539.265 161.143C539.478 161.424 539.623 161.751 539.688 162.098C539.754 162.444 539.738 162.802 539.642 163.141L529.042 196.841C528.901 197.332 528.595 197.758 528.177 198.05C527.758 198.341 527.251 198.48 526.742 198.441Z" fill="#63737A"/>
<path d="M536.942 198.941C536.591 198.919 536.249 198.819 535.942 198.647C535.635 198.475 535.371 198.236 535.169 197.947C534.967 197.659 534.833 197.329 534.776 196.981C534.72 196.634 534.742 196.278 534.842 195.941L539.242 182.041C539.384 181.571 539.676 181.16 540.073 180.871C540.47 180.582 540.951 180.431 541.442 180.441C541.801 180.452 542.152 180.544 542.469 180.711C542.787 180.878 543.062 181.115 543.274 181.404C543.486 181.693 543.63 182.027 543.693 182.38C543.757 182.733 543.74 183.096 543.642 183.441L539.242 197.341C539.079 197.817 538.768 198.229 538.354 198.517C537.94 198.805 537.446 198.953 536.942 198.941Z" fill="#FFE779"/>
<path d="M547.542 199.341C547.178 199.321 546.822 199.218 546.502 199.042C546.183 198.865 545.907 198.619 545.695 198.321C545.484 198.023 545.342 197.681 545.281 197.321C545.22 196.961 545.241 196.592 545.342 196.241L557.842 156.441C557.996 155.969 558.288 155.555 558.68 155.252C559.073 154.949 559.547 154.771 560.042 154.741C560.419 154.736 560.792 154.821 561.13 154.988C561.467 155.155 561.761 155.4 561.985 155.703C562.21 156.005 562.359 156.357 562.421 156.729C562.483 157.101 562.456 157.482 562.342 157.841L549.842 197.641C549.719 198.149 549.421 198.598 549.001 198.908C548.58 199.219 548.064 199.372 547.542 199.341Z" fill="#6DAFA7"/>
<path d="M558.442 199.841C558.068 199.811 557.705 199.701 557.378 199.516C557.051 199.332 556.769 199.079 556.55 198.774C556.331 198.47 556.181 198.121 556.11 197.752C556.04 197.384 556.051 197.004 556.142 196.641L564.342 170.441C564.501 169.953 564.807 169.527 565.22 169.222C565.632 168.917 566.13 168.749 566.642 168.741C567.033 168.734 567.419 168.82 567.769 168.992C568.12 169.164 568.425 169.416 568.659 169.728C568.893 170.04 569.05 170.404 569.116 170.788C569.183 171.173 569.158 171.568 569.042 171.941L560.842 198.141C560.675 198.642 560.352 199.077 559.92 199.383C559.489 199.688 558.971 199.849 558.442 199.841Z" fill="#63737A"/>
<path d="M569.842 200.341C569.453 200.326 569.072 200.221 568.73 200.034C568.388 199.847 568.093 199.584 567.871 199.264C567.648 198.944 567.502 198.577 567.445 198.191C567.388 197.805 567.421 197.412 567.542 197.041L569.242 191.441C569.41 190.912 569.744 190.451 570.194 190.127C570.645 189.803 571.187 189.632 571.742 189.641C572.138 189.647 572.527 189.745 572.879 189.927C573.23 190.109 573.535 190.371 573.767 190.691C574 191.011 574.155 191.381 574.221 191.772C574.286 192.162 574.259 192.563 574.142 192.941L572.442 198.541C572.241 199.068 571.885 199.522 571.421 199.843C570.957 200.164 570.407 200.338 569.842 200.341Z" fill="#F4C2C9"/>
<path d="M581.542 200.841C581.144 200.816 580.756 200.702 580.407 200.508C580.059 200.313 579.758 200.042 579.528 199.716C579.297 199.39 579.143 199.016 579.077 198.622C579.01 198.229 579.032 197.825 579.142 197.441L587.642 170.441C587.805 169.901 588.134 169.426 588.583 169.085C589.033 168.744 589.578 168.553 590.142 168.541C590.558 168.536 590.969 168.628 591.343 168.81C591.716 168.992 592.043 169.259 592.295 169.589C592.548 169.919 592.719 170.304 592.797 170.712C592.875 171.121 592.856 171.541 592.742 171.941L584.242 198.941C584.053 199.504 583.689 199.992 583.203 200.333C582.718 200.675 582.136 200.853 581.542 200.841Z" fill="#FFE779"/>
<path d="M592.742 138.741C592.942 138.041 592.642 137.441 592.142 137.441C591.642 137.441 590.942 138.041 590.642 138.841C590.342 139.641 590.742 140.141 591.242 140.141C591.591 140.055 591.912 139.882 592.175 139.637C592.438 139.391 592.633 139.083 592.742 138.741Z" fill="#63737A"/>
<path d="M597.942 138.441C598.142 137.741 597.842 137.141 597.242 137.141C596.886 137.209 596.556 137.377 596.291 137.625C596.026 137.872 595.835 138.19 595.742 138.541C595.542 139.241 595.842 139.841 596.442 139.841C596.791 139.755 597.112 139.581 597.375 139.336C597.638 139.091 597.833 138.783 597.942 138.441Z" fill="#63737A"/>
<path d="M603.242 138.141C603.442 137.441 603.142 136.841 602.542 136.841C602.186 136.91 601.856 137.077 601.591 137.325C601.325 137.573 601.135 137.89 601.042 138.241C600.842 138.941 601.142 139.541 601.742 139.541C602.099 139.472 602.428 139.304 602.694 139.057C602.959 138.809 603.149 138.492 603.242 138.141Z" fill="#63737A"/>
<path d="M291.942 62.1408C291.942 62.1408 284.742 62.4408 282.942 55.8408C281.142 49.2408 287.942 46.2408 287.942 52.4408C287.942 58.6408 278.242 61.3408 274.242 56.1408C270.242 50.9408 274.942 46.9408 276.242 49.9408C277.542 52.9408 274.442 59.2408 268.742 57.3408" stroke="#6DAFA7" stroke-width="1.8" stroke-linecap="round" stroke-linejoin="round"/>
<path d="M377.942 72.4408C377.942 72.4408 390.242 71.7408 389.442 62.8408C388.642 53.9408 380.642 70.4408 391.342 70.2408C402.042 70.0408 401.442 59.9408 398.242 59.2408C395.042 58.5408 395.842 66.3408 401.742 65.8408C407.642 65.3408 408.542 61.7408 408.542 61.7408" stroke="#6DAFA7" stroke-width="1.8" stroke-linecap="round" stroke-linejoin="round"/>
<path d="M337.342 55.1412C337.342 54.4688 337.143 53.8114 336.769 53.2523C336.396 52.6932 335.865 52.2574 335.243 52C334.622 51.7427 333.938 51.6754 333.279 51.8065C332.619 51.9377 332.014 52.2616 331.538 52.7371C331.063 53.2126 330.739 53.8184 330.608 54.4779C330.476 55.1374 330.544 55.8211 330.801 56.4423C331.058 57.0636 331.494 57.5946 332.053 57.9682C332.612 58.3418 333.27 58.5412 333.942 58.5412C334.39 58.5452 334.834 58.46 335.248 58.2906C335.662 58.1211 336.039 57.8708 336.355 57.5543C336.672 57.2378 336.922 56.8614 337.092 56.4471C337.261 56.0327 337.346 55.5888 337.342 55.1412Z" fill="#6DAFA7"/>
<path d="M353.742 18.241C353.936 20.9478 353.575 23.6657 352.681 26.2279C351.787 28.7901 350.378 31.1426 348.542 33.141C344.743 37.2511 342.636 42.6441 342.642 48.241V51.741C342.632 52.6661 342.26 53.5503 341.606 54.2044C340.952 54.8585 340.067 55.2306 339.142 55.241H328.942C328.017 55.2306 327.133 54.8585 326.479 54.2044C325.825 53.5503 325.453 52.6661 325.442 51.741V48.241C325.466 42.6705 323.355 37.3025 319.542 33.241C316.121 29.5804 314.225 24.7518 314.242 19.741C314.252 14.6318 316.239 9.72456 319.786 6.04734C323.334 2.37012 328.166 0.208144 333.272 0.0142605C338.377 -0.179623 343.36 1.60963 347.176 5.00724C350.992 8.40485 353.345 13.1472 353.742 18.241Z" fill="#FFE779"/>
<path d="M325.342 48.2412H342.542" stroke="#22272E" stroke-width="1.8" stroke-linecap="round" stroke-linejoin="round"/>
<path d="M325.342 51.6406H342.542" stroke="#22272E" stroke-width="1.8" stroke-linecap="round" stroke-linejoin="round"/>
<path d="M332.142 48.2409V20.8408C332.139 20.272 331.981 19.7148 331.687 19.2283C331.392 18.7417 330.971 18.344 330.469 18.0774C329.966 17.8108 329.401 17.6852 328.833 17.714C328.265 17.7428 327.715 17.9248 327.242 18.2409C326.859 18.5142 326.542 18.8696 326.315 19.2811C326.087 19.6926 325.953 20.1498 325.925 20.6194C325.896 21.0889 325.972 21.5589 326.148 21.9952C326.324 22.4314 326.596 22.8228 326.942 23.1408L328.142 24.2408" stroke="#22272E" stroke-width="1.8" stroke-linecap="round" stroke-linejoin="round"/>
<path d="M335.742 48.2409V20.8408C335.746 20.272 335.903 19.7148 336.198 19.2283C336.492 18.7417 336.913 18.344 337.416 18.0774C337.918 17.8108 338.483 17.6852 339.052 17.714C339.62 17.7428 340.169 17.9248 340.642 18.2409C341.025 18.5142 341.342 18.8696 341.57 19.2811C341.798 19.6926 341.931 20.1498 341.96 20.6194C341.989 21.0889 341.912 21.5589 341.736 21.9952C341.56 22.4314 341.289 22.8228 340.942 23.1408L339.742 24.2408" stroke="#22272E" stroke-width="1.8" stroke-linecap="round" stroke-linejoin="round"/>
<path d="M253.742 123.741L244.942 43.1406C244.798 41.9606 244.27 40.8609 243.438 40.0114C242.607 39.1619 241.519 38.6098 240.342 38.4406L126.242 23.5406C125.634 23.4702 125.018 23.5382 124.44 23.7395C123.862 23.9407 123.337 24.27 122.904 24.7028C122.472 25.1356 122.142 25.6606 121.941 26.2386C121.74 26.8166 121.672 27.4326 121.742 28.0406L132.942 124.141C133.092 125.439 133.716 126.636 134.694 127.504C135.672 128.371 136.935 128.847 138.242 128.841L249.642 128.241C250.221 128.26 250.796 128.153 251.33 127.928C251.863 127.703 252.341 127.365 252.731 126.937C253.121 126.509 253.413 126.002 253.587 125.45C253.762 124.898 253.815 124.315 253.742 123.741Z" fill="#63737A"/>
<path d="M258.842 123.341L250.042 42.1412C249.915 40.9549 249.392 39.846 248.557 38.9934C247.723 38.1407 246.626 37.5939 245.442 37.4412L130.542 22.4412C129.929 22.3681 129.308 22.4333 128.723 22.6321C128.139 22.8308 127.606 23.1581 127.165 23.5899C126.724 24.0216 126.385 24.5467 126.173 25.1267C125.961 25.7067 125.883 26.3267 125.942 26.9412L137.242 123.741C137.392 125.04 138.016 126.237 138.994 127.104C139.972 127.971 141.235 128.447 142.542 128.441L254.842 127.841C255.409 127.833 255.967 127.707 256.482 127.472C256.997 127.236 257.457 126.895 257.833 126.472C258.21 126.049 258.494 125.552 258.667 125.013C258.841 124.474 258.901 123.905 258.842 123.341Z" fill="#22272E"/>
<path d="M244.342 115.341H152.942L152.642 112.341L171.942 85.1412C173.067 83.5226 174.716 82.3407 176.61 81.7943C178.504 81.248 180.528 81.3705 182.342 82.1412L191.142 85.7412C193.052 86.5183 195.175 86.5931 197.134 85.9522C199.093 85.3114 200.761 83.9964 201.842 82.2412L205.742 75.8412C206.792 74.1049 208.419 72.793 210.339 72.1349C212.258 71.4768 214.348 71.5144 216.242 72.2412C217.986 72.9299 219.908 73.029 221.713 72.5234C223.519 72.0178 225.11 70.9354 226.242 69.4412L238.242 53.7412L244.342 115.341Z" fill="#FFE779"/>
<path d="M152.642 112.341L145.742 52.541" stroke="#6DAFA7" stroke-width="1.8" stroke-linecap="round" stroke-linejoin="round"/>
<path d="M152.342 109.641L168.042 68.6412C168.424 67.6205 169.006 66.6866 169.754 65.8948C170.502 65.1029 171.402 64.4692 172.399 64.031C173.397 63.5928 174.472 63.3591 175.562 63.3437C176.651 63.3282 177.733 63.5314 178.742 63.9412L186.842 67.1412C188.465 67.7655 190.241 67.8698 191.925 67.4398C193.609 67.0098 195.118 66.0667 196.242 64.7412L201.642 58.1412C202.339 57.2791 203.204 56.5685 204.185 56.053C205.167 55.5376 206.243 55.2282 207.348 55.144C208.453 55.0597 209.564 55.2022 210.612 55.5629C211.66 55.9235 212.623 56.4947 213.442 57.2412C214.772 58.4499 216.465 59.184 218.256 59.3288C220.047 59.4735 221.836 59.0207 223.342 58.0412L237.942 48.7412" stroke="#6DAFA7" stroke-width="1.8" stroke-linecap="round" stroke-linejoin="round"/>
<path d="M145.042 44.6409L144.442 39.8409C144.419 39.6648 144.437 39.4857 144.494 39.3176C144.552 39.1494 144.647 38.9966 144.772 38.871C144.898 38.7454 145.051 38.6503 145.219 38.5931C145.387 38.5359 145.566 38.518 145.742 38.541L167.442 40.8409C167.759 40.8758 168.056 41.0112 168.29 41.2271C168.524 41.4431 168.682 41.7283 168.742 42.041L169.442 46.4409C169.467 46.5777 169.459 46.7185 169.417 46.8512C169.376 46.9839 169.303 47.1046 169.204 47.2029C169.106 47.3012 168.985 47.3743 168.853 47.4157C168.72 47.4572 168.579 47.4658 168.442 47.4409L146.342 45.8409C146.177 45.8504 146.012 45.8265 145.857 45.7709C145.702 45.7152 145.559 45.6287 145.438 45.5168C145.316 45.4048 145.219 45.2695 145.151 45.1191C145.083 44.9686 145.046 44.806 145.042 44.6409Z" fill="#6DAFA7"/>
<path d="M498.942 91.0409C475.842 113.441 447.142 117.841 436.742 102.441C427.542 88.8409 436.242 64.6409 455.042 47.1409C473.542 29.9409 497.942 22.8409 511.142 31.9409C526.042 42.1409 521.642 69.0409 498.942 91.0409Z" fill="#F8AB5D"/>
<path d="M495.642 87.6415C472.542 110.042 443.842 114.442 433.442 99.0415C424.242 85.4415 432.942 61.2415 451.742 43.7415C470.242 26.5415 494.642 19.4415 507.842 28.5415C522.842 38.8415 518.342 65.7415 495.642 87.6415Z" fill="#FFE779"/>
<path d="M485.942 77.941C472.042 91.241 454.642 94.541 447.642 85.641C441.242 77.441 446.342 61.941 458.542 50.541C470.742 39.141 486.342 34.941 494.442 41.341C503.142 48.141 499.642 64.741 485.942 77.941Z" fill="#6DAFA7"/>
<path d="M477.042 69.0415C471.542 74.2415 464.542 75.7415 461.542 72.4415C458.542 69.1415 460.542 62.7415 465.742 57.8415C470.942 52.9415 477.642 51.3415 480.842 54.2415C484.042 57.1415 482.542 63.8415 477.042 69.0415Z" fill="#F4C2C9"/>
<path d="M441.542 35.441C441.038 35.9093 440.446 36.2731 439.8 36.5116C439.154 36.7501 438.468 36.8585 437.78 36.8306C437.092 36.8027 436.417 36.6391 435.792 36.3491C435.168 36.0592 434.607 35.6486 434.142 35.141L416.342 12.441C415.899 11.8699 415.684 11.1541 415.739 10.4331C415.795 9.71211 416.117 9.03761 416.642 8.54102C417.177 8.05825 417.872 7.79102 418.592 7.79102C419.313 7.79102 420.008 8.05825 420.542 8.54102L441.742 28.041C442.239 28.5273 442.629 29.1108 442.89 29.7549C443.15 30.3991 443.275 31.09 443.256 31.7846C443.237 32.4792 443.076 33.1625 442.781 33.7916C442.486 34.4207 442.064 34.9823 441.542 35.441Z" fill="#22272E"/>
<path d="M420.442 16.741L414.742 17.541C414.389 17.58 414.054 17.7212 413.78 17.9473C413.505 18.1734 413.302 18.4746 413.196 18.8141C413.09 19.1536 413.085 19.5167 413.182 19.8589C413.279 20.2011 413.474 20.5076 413.742 20.741C417.248 23.8208 421.541 25.8637 426.142 26.641L429.042 27.141C429.118 27.1561 429.197 27.1484 429.268 27.1188C429.339 27.0892 429.4 27.0392 429.443 26.9749C429.486 26.9106 429.509 26.8351 429.509 26.7578C429.509 26.6806 429.485 26.6051 429.442 26.541L422.242 17.441C422.021 17.1881 421.741 16.9925 421.428 16.8706C421.115 16.7488 420.777 16.7043 420.442 16.741Z" fill="#6DAFA7"/>
<path d="M424.642 12.9415L425.942 7.34153C426.022 6.99609 426.198 6.68055 426.451 6.43206C426.704 6.18357 427.022 6.01248 427.369 5.93893C427.716 5.86538 428.076 5.89242 428.408 6.0169C428.74 6.14138 429.029 6.3581 429.242 6.64153C432.056 10.3573 433.756 14.7966 434.142 19.4415L434.342 22.3415C434.342 22.6415 433.942 22.8415 433.742 22.6415L425.242 14.8415C424.973 14.6136 424.774 14.3143 424.668 13.9781C424.562 13.6419 424.553 13.2826 424.642 12.9415Z" fill="#6DAFA7"/>
<path d="M440.742 34.541L446.442 40.641" stroke="#22272E" stroke-width="1.8" stroke-linecap="round" stroke-linejoin="round"/>
<path d="M560.842 87.1412V72.5412C560.837 72.198 560.699 71.8704 560.456 71.6277C560.213 71.385 559.885 71.2464 559.542 71.2412H552.942C552.599 71.2464 552.271 71.385 552.029 71.6277C551.786 71.8704 551.647 72.198 551.642 72.5412V87.1412H547.842C547.619 87.1386 547.399 87.1954 547.205 87.3059C547.01 87.4164 546.849 87.5765 546.737 87.7698C546.625 87.9632 546.567 88.1828 546.568 88.4062C546.569 88.6296 546.629 88.8488 546.742 89.0412L555.042 102.141C555.15 102.324 555.304 102.475 555.488 102.58C555.672 102.685 555.88 102.74 556.092 102.74C556.304 102.74 556.513 102.685 556.697 102.58C556.881 102.475 557.034 102.324 557.142 102.141L565.442 89.0412C565.556 88.8488 565.616 88.6296 565.617 88.4062C565.618 88.1828 565.559 87.9632 565.447 87.7698C565.336 87.5765 565.174 87.4164 564.98 87.3059C564.786 87.1954 564.566 87.1386 564.342 87.1412H560.842Z" fill="#6DAFA7"/>
<path d="M589.842 102.941V88.341C589.837 87.9978 589.699 87.6702 589.456 87.4275C589.213 87.1848 588.885 87.0462 588.542 87.041H581.942C581.599 87.0462 581.271 87.1848 581.029 87.4275C580.786 87.6702 580.647 87.9978 580.642 88.341V102.941H576.842C576.619 102.938 576.399 102.995 576.205 103.106C576.01 103.216 575.849 103.376 575.737 103.57C575.625 103.763 575.567 103.983 575.568 104.206C575.569 104.429 575.629 104.649 575.742 104.841L584.042 117.941C584.15 118.123 584.304 118.275 584.488 118.38C584.672 118.485 584.88 118.54 585.092 118.54C585.304 118.54 585.513 118.485 585.697 118.38C585.881 118.275 586.034 118.123 586.142 117.941L594.442 104.841C594.556 104.649 594.616 104.429 594.617 104.206C594.618 103.983 594.559 103.763 594.447 103.57C594.336 103.376 594.174 103.216 593.98 103.106C593.786 102.995 593.566 102.938 593.342 102.941H589.842Z" fill="#22272E"/>
<path d="M112.142 160.541C112.311 159.878 112.28 159.179 112.052 158.534C111.824 157.888 111.409 157.325 110.861 156.915C110.312 156.505 109.655 156.267 108.971 156.231C108.287 156.195 107.608 156.363 107.02 156.713C106.432 157.064 105.96 157.58 105.666 158.199C105.371 158.817 105.267 159.508 105.366 160.186C105.465 160.863 105.762 161.496 106.221 162.004C106.679 162.513 107.279 162.874 107.942 163.041C108.382 163.156 108.841 163.183 109.291 163.119C109.742 163.056 110.175 162.903 110.566 162.671C110.957 162.438 111.297 162.13 111.568 161.764C111.839 161.399 112.034 160.983 112.142 160.541Z" fill="#22272E"/>
<path d="M116.342 152.341L116.542 151.441C116.906 150.036 116.7 148.544 115.97 147.289C115.24 146.035 114.044 145.119 112.642 144.741C111.237 144.377 109.745 144.583 108.49 145.313C107.236 146.044 106.32 147.24 105.942 148.641L105.742 149.541C105.444 150.539 104.932 151.46 104.242 152.241C103.642 152.841 103.042 153.541 102.442 154.141C102.151 154.466 101.947 154.859 101.849 155.285C101.751 155.71 101.762 156.153 101.882 156.573C102.002 156.992 102.226 157.374 102.534 157.684C102.842 157.993 103.223 158.219 103.642 158.341L108.642 159.641L113.642 160.941C114.062 161.052 114.503 161.053 114.923 160.943C115.342 160.833 115.727 160.617 116.039 160.316C116.35 160.014 116.579 159.637 116.702 159.221C116.826 158.805 116.839 158.364 116.742 157.941C116.542 157.041 116.342 156.141 116.142 155.341C116.012 154.338 116.08 153.318 116.342 152.341Z" fill="#6DAFA7"/>
<path d="M19.4424 115.841C19.4424 115.841 56.8424 107.341 56.2424 87.541L113.442 92.041C113.442 92.041 112.742 116.341 75.4424 128.741C75.3424 128.741 35.6424 123.441 19.4424 115.841Z" fill="#FFE779"/>
<path d="M67.3423 114.941L77.4423 116.341" stroke="#22272E" stroke-width="1.8" stroke-linecap="round" stroke-linejoin="round"/>
<path d="M71.5422 110.941L83.2422 112.541" stroke="#22272E" stroke-width="1.8" stroke-linecap="round" stroke-linejoin="round"/>
<path d="M61.5422 101.341C61.5422 101.341 87.3422 104.941 91.9422 105.541" stroke="#22272E" stroke-width="1.8" stroke-linecap="round" stroke-linejoin="round"/>
<path d="M66.1424 107.541C63.4752 111.336 59.8051 114.313 55.5424 116.141C55.2853 116.229 55.0131 116.263 54.7424 116.241C50.8424 115.441 46.8424 114.541 43.0424 113.541C42.9225 113.514 42.8142 113.45 42.7331 113.358C42.652 113.266 42.6024 113.15 42.5913 113.028C42.5801 112.905 42.6081 112.783 42.6712 112.677C42.7343 112.572 42.8293 112.489 42.9424 112.441C47.1846 110.648 51.1296 108.22 54.6424 105.241C54.7653 105.104 54.9237 105.003 55.1001 104.95C55.2766 104.897 55.4643 104.894 55.6424 104.941C57.7424 105.341 61.3424 105.841 65.7424 106.541C66.1424 106.741 66.4424 107.241 66.1424 107.541Z" fill="#22272E"/>
<path d="M83.1423 96.1406C82.9453 97.0598 82.6778 97.9625 82.3423 98.8406C82.2824 99.0217 82.1566 99.1736 81.9899 99.2662C81.8232 99.3589 81.6277 99.3854 81.4423 99.3406L61.9423 97.2406C61.8076 97.2268 61.6781 97.1813 61.5643 97.108C61.4505 97.0346 61.3557 96.9354 61.2874 96.8185C61.2192 96.7015 61.1796 96.5701 61.1717 96.435C61.1639 96.2998 61.1881 96.1647 61.2423 96.0406C61.5471 95.34 61.7492 94.599 61.8423 93.8406C61.9031 93.6461 62.0219 93.4749 62.1828 93.3498C62.3436 93.2247 62.5388 93.1517 62.7423 93.1406L82.3423 94.9406C82.8423 95.2406 83.2423 95.6406 83.1423 96.1406Z" fill="#6DAFA7"/>
<path d="M422.642 126.441C418.742 134.941 409.342 140.541 402.942 138.841C397.342 137.341 396.242 130.641 399.842 124.041C403.242 117.641 410.342 112.641 416.342 112.441C423.042 112.341 426.342 118.441 422.642 126.441Z" fill="#F8AB5D"/>
<path d="M420.642 124.741C416.742 133.241 407.342 138.841 400.942 137.141C395.342 135.641 394.242 128.941 397.842 122.341C401.242 115.941 408.342 110.941 414.342 110.741C421.142 110.541 424.342 116.641 420.642 124.741Z" fill="#FFE779"/>
<path d="M417.442 124.441C414.442 130.741 407.542 135.041 402.642 133.941C398.242 132.941 397.242 127.841 400.042 122.541C402.742 117.541 408.342 113.541 412.942 113.541C418.042 113.541 420.342 118.341 417.442 124.441Z" fill="#F8AB5D"/>
<path d="M404.142 129.841L404.542 129.141C404.642 128.841 404.642 128.641 404.442 128.541C404.017 128.417 403.635 128.174 403.342 127.841C403.242 127.741 403.242 127.441 403.442 127.141L403.542 127.041C403.742 126.741 404.142 126.641 404.242 126.841C404.524 127.123 404.869 127.333 405.249 127.453C405.629 127.573 406.032 127.6 406.424 127.531C406.817 127.463 407.187 127.3 407.503 127.059C407.82 126.817 408.073 126.502 408.242 126.141C408.356 125.96 408.431 125.757 408.463 125.545C408.494 125.333 408.481 125.116 408.425 124.91C408.368 124.703 408.27 124.51 408.135 124.343C408 124.177 407.833 124.04 407.642 123.941C406.542 123.141 406.042 122.241 406.842 120.841C407.156 120.242 407.596 119.717 408.131 119.303C408.666 118.889 409.284 118.595 409.942 118.441C410.079 118.422 410.208 118.365 410.314 118.277C410.42 118.188 410.499 118.072 410.542 117.941L410.942 117.241C411.006 117.104 411.103 116.986 411.226 116.899C411.349 116.811 411.492 116.757 411.642 116.741C411.842 116.741 411.942 116.941 411.842 117.241L411.542 117.841C411.442 118.141 411.442 118.341 411.742 118.341C412.097 118.413 412.436 118.549 412.742 118.741C412.942 118.841 412.842 119.141 412.642 119.441L412.542 119.541C412.46 119.671 412.337 119.771 412.192 119.825C412.048 119.879 411.89 119.885 411.742 119.841C411.361 119.576 410.907 119.436 410.442 119.441C409.985 119.399 409.527 119.502 409.132 119.735C408.737 119.968 408.426 120.321 408.242 120.741C407.842 121.541 408.142 122.041 409.042 122.741C409.327 122.905 409.573 123.127 409.765 123.393C409.957 123.659 410.091 123.963 410.157 124.284C410.223 124.605 410.22 124.937 410.149 125.257C410.077 125.577 409.939 125.879 409.742 126.141C409.431 126.819 408.958 127.411 408.365 127.864C407.773 128.317 407.078 128.618 406.342 128.741C406.206 128.76 406.077 128.817 405.971 128.906C405.865 128.994 405.786 129.11 405.742 129.241L405.342 130.041C405.27 130.171 405.17 130.284 405.049 130.37C404.928 130.457 404.789 130.515 404.642 130.541C404.042 130.341 403.942 130.141 404.142 129.841Z" fill="#FFE779"/>
<path d="M100.842 272.841H91.0422L90.5422 290.641H99.9422L100.842 272.841Z" fill="#6DAFA7"/>
<path d="M90.5422 290.641L84.6422 469.841C84.6187 470.285 84.6872 470.729 84.8434 471.146C84.9996 471.562 85.2401 471.942 85.5499 472.261C85.8597 472.58 86.2321 472.832 86.6438 473.001C87.0555 473.169 87.4975 473.251 87.9422 473.241C88.7845 473.245 89.5963 472.925 90.2103 472.349C90.8242 471.772 91.1936 470.982 91.2422 470.141L99.9422 290.641H90.5422Z" fill="#B0D7C0"/>
<path d="M587.142 272.841H577.442L578.242 290.641H587.742L587.142 272.841Z" fill="#6DAFA7"/>
<path d="M578.242 290.641L586.942 470.141C586.982 471.016 587.368 471.839 588.015 472.43C588.662 473.021 589.517 473.33 590.392 473.291C591.267 473.251 592.091 472.865 592.682 472.218C593.273 471.571 593.582 470.716 593.542 469.841L587.642 290.641H578.242Z" fill="#B0D7C0"/>
<path d="M126.942 248.541L121.442 417.041C121.423 417.418 121.482 417.796 121.614 418.15C121.747 418.504 121.951 418.827 122.213 419.098C122.476 419.37 122.791 419.585 123.14 419.73C123.489 419.875 123.864 419.947 124.242 419.941C124.969 419.947 125.67 419.667 126.193 419.162C126.717 418.658 127.021 417.968 127.042 417.241L135.242 248.541H126.942Z" fill="#B0D7C0"/>
<path d="M551.242 248.541L556.742 417.041C556.762 417.418 556.703 417.796 556.57 418.15C556.438 418.504 556.234 418.827 555.971 419.098C555.709 419.37 555.393 419.585 555.044 419.73C554.695 419.875 554.32 419.947 553.942 419.941C553.215 419.947 552.515 419.667 551.992 419.162C551.468 418.658 551.163 417.968 551.142 417.241L542.942 248.541H551.242Z" fill="#B0D7C0"/>
<path d="M614.842 269.041H63.3423L121.142 241.541H557.142L614.842 269.041Z" fill="white"/>
<path d="M614.842 269.041H63.3423V276.541H614.842V269.041Z" fill="#B0D7C0"/>
<path d="M515.342 242.441C515.342 242.441 510.642 240.141 509.042 235.541C507.442 230.941 510.242 227.841 511.442 228.141C512.642 228.441 514.442 234.241 515.942 234.241C517.442 234.241 517.142 224.041 520.142 222.941C523.142 221.841 522.842 233.041 522.942 233.941C523.142 236.241 527.042 231.241 528.442 229.241C530.142 226.741 535.642 235.741 524.142 242.441C521.232 242.964 518.252 242.964 515.342 242.441Z" fill="#6DAFA7"/>
<path d="M534.742 243.541V243.941C534.609 249.892 533.459 255.777 531.342 261.341C531.15 261.798 530.831 262.191 530.424 262.474C530.017 262.758 529.538 262.919 529.042 262.941H511.042C510.542 262.939 510.054 262.784 509.644 262.499C509.233 262.213 508.919 261.809 508.742 261.341C506.617 255.78 505.466 249.893 505.342 243.941V243.541C505.334 243.289 505.377 243.038 505.47 242.804C505.562 242.57 505.702 242.357 505.88 242.179C506.058 242.001 506.271 241.861 506.505 241.769C506.74 241.676 506.991 241.633 507.242 241.641H532.842C533.096 241.623 533.351 241.66 533.59 241.749C533.829 241.839 534.045 241.978 534.225 242.158C534.405 242.338 534.545 242.555 534.634 242.793C534.723 243.032 534.76 243.287 534.742 243.541Z" fill="#22272E"/>
<path d="M467.142 236.141C459.342 236.941 457.342 258.041 442.542 260.141C442.542 260.141 439.842 260.241 435.442 260.341C422.742 260.741 396.542 261.341 385.942 260.441C387.48 260.431 389.016 260.331 390.542 260.141C395.142 259.541 398.442 257.041 401.142 254.041C407.142 247.041 409.842 236.741 415.142 236.241H467.142V236.141Z" fill="#22272E"/>
<path d="M401.042 254.041C398.415 257.351 394.624 259.533 390.442 260.141C388.916 260.334 387.38 260.434 385.842 260.441C374.642 260.441 371.342 254.241 371.342 254.241C371.342 254.241 389.242 255.041 401.042 254.041Z" fill="#6DAFA7"/>
<path d="M325.442 262.541H252.842V257.141H330.842C330.845 257.851 330.707 258.554 330.437 259.21C330.166 259.867 329.769 260.463 329.267 260.965C328.765 261.467 328.168 261.865 327.512 262.135C326.856 262.405 326.152 262.543 325.442 262.541Z" fill="#22272E"/>
<path d="M268.442 262.541H156.542C154.777 262.531 153.064 261.937 151.671 260.851C150.278 259.766 149.284 258.25 148.842 256.541L130.442 183.241C130.285 182.602 130.275 181.935 130.412 181.291C130.55 180.648 130.831 180.043 131.235 179.524C131.639 179.004 132.155 178.583 132.746 178.292C133.336 178 133.984 177.846 134.642 177.841H246.542C248.308 177.851 250.021 178.445 251.413 179.53C252.806 180.616 253.801 182.131 254.242 183.841L272.642 257.141C272.81 257.781 272.827 258.451 272.694 259.098C272.561 259.746 272.281 260.355 271.875 260.877C271.468 261.399 270.948 261.821 270.352 262.109C269.757 262.398 269.104 262.545 268.442 262.541Z" fill="#22272E"/>
<path d="M202.336 226.523C204.984 223.483 203.855 218.166 199.815 214.648C195.775 211.13 190.354 210.742 187.706 213.783C185.058 216.823 186.187 222.14 190.227 225.658C194.267 229.176 199.689 229.564 202.336 226.523Z" fill="#63737A"/>
<path d="M331.542 251.741H307.842C307.286 251.739 306.754 251.516 306.36 251.123C305.967 250.73 305.745 250.197 305.742 249.641C305.75 246.753 306.901 243.985 308.944 241.943C310.986 239.9 313.754 238.749 316.642 238.741H322.642C325.531 238.749 328.299 239.9 330.341 241.943C332.383 243.985 333.534 246.753 333.542 249.641C333.556 249.912 333.514 250.183 333.42 250.437C333.325 250.692 333.18 250.924 332.993 251.121C332.806 251.317 332.581 251.473 332.331 251.58C332.082 251.687 331.814 251.742 331.542 251.741Z" fill="#22272E"/>
<path d="M475.942 254.141C473.742 253.741 470.142 252.641 468.942 248.641C467.742 244.641 476.842 235.941 479.642 235.941C482.442 235.941 487.542 238.741 490.242 242.541C492.942 246.341 487.942 248.741 488.542 250.541C489.142 252.341 483.542 255.641 475.942 254.141Z" fill="white" stroke="#B0D7C0" stroke-width="1.8" stroke-linecap="round" stroke-linejoin="round"/>
<path d="M468.942 248.641C468.942 248.641 473.642 252.041 475.842 251.041C478.042 250.041 479.742 247.241 483.642 247.641C487.542 248.041 486.742 241.241 483.642 240.141C480.542 239.041 478.342 246.041 475.842 246.141C473.342 246.241 472.742 244.641 475.042 242.841" fill="white"/>
<path d="M468.942 248.641C468.942 248.641 473.642 252.041 475.842 251.041C478.042 250.041 479.742 247.241 483.642 247.641C487.542 248.041 486.742 241.241 483.642 240.141C480.542 239.041 478.342 246.041 475.842 246.141C473.342 246.241 472.742 244.641 475.042 242.841" stroke="#B0D7C0" stroke-width="1.8" stroke-linecap="round" stroke-linejoin="round"/>
<path d="M464.242 260.341C464.242 260.341 466.742 257.441 465.642 255.841C464.542 254.241 463.642 253.741 463.142 252.841C462.442 251.441 462.542 248.441 460.942 246.941C459.342 245.441 456.742 247.841 450.742 247.041C446.142 246.441 441.942 253.541 443.542 255.541C444.136 256.459 444.88 257.27 445.742 257.941C445.742 257.941 444.842 259.741 445.342 260.841C445.842 261.941 449.342 263.541 454.642 264.041C459.942 264.541 464.242 260.341 464.242 260.341Z" fill="white" stroke="#B0D7C0" stroke-width="1.8" stroke-linecap="round" stroke-linejoin="round"/>
<path d="M445.742 258.041C445.742 258.041 450.542 261.741 453.942 260.941C457.342 260.141 460.642 253.941 460.442 252.241C460.242 250.541 458.842 249.741 455.442 252.841C452.042 255.941 449.442 255.141 449.742 252.441" fill="white"/>
<path d="M445.742 258.041C445.742 258.041 450.542 261.741 453.942 260.941C457.342 260.141 460.642 253.941 460.442 252.241C460.242 250.541 458.842 249.741 455.442 252.841C452.042 255.941 449.442 255.141 449.742 252.441" stroke="#B0D7C0" stroke-width="1.8" stroke-linecap="round" stroke-linejoin="round"/>
</svg>
