<svg width="314" height="383" viewBox="0 0 314 383" fill="none" xmlns="http://www.w3.org/2000/svg">
<path d="M152.837 382.033L23.7166 374.083C21.4445 373.959 19.225 373.352 17.2062 372.303C15.1874 371.253 13.4157 369.785 12.0093 367.996C10.6029 366.207 9.59424 364.139 9.05058 361.93C8.50691 359.72 8.44077 357.42 8.85655 355.183L58.0565 79.4732C58.8943 74.8795 61.1988 70.6812 64.6245 67.5079C68.0501 64.3347 72.4122 62.3576 77.0565 61.8732L206.757 49.3232C209.22 49.0847 211.706 49.4157 214.022 50.2906C216.337 51.1656 218.421 52.5611 220.111 54.3694C221.801 56.1777 223.053 58.3503 223.77 60.7195C224.488 63.0887 224.65 65.5911 224.247 68.0332L175.247 364.033C174.44 369.293 171.691 374.059 167.542 377.391C163.393 380.724 158.146 382.38 152.837 382.033Z" fill="#F8AB5D"/>
<path d="M145.767 381.153L16.6366 373.213C14.3646 373.089 12.1451 372.482 10.1263 371.432C8.10744 370.383 6.33572 368.914 4.92934 367.126C3.52297 365.337 2.51429 363.269 1.97063 361.059C1.42696 358.85 1.36081 356.55 1.77659 354.313L50.9766 78.6027C51.8144 74.009 54.1189 69.8107 57.5445 66.6374C60.9702 63.4642 65.3323 61.4871 69.9766 61.0027L199.717 48.4527C202.182 48.2194 204.669 48.556 206.984 49.4366C209.299 50.3171 211.381 51.7181 213.068 53.5312C214.756 55.3444 216.004 57.5211 216.716 59.8934C217.429 62.2657 217.586 64.7699 217.177 67.2127L168.177 363.263C167.32 368.49 164.553 373.214 160.413 376.519C156.273 379.824 151.054 381.475 145.767 381.153Z" fill="#FFE779"/>
<mask id="mask0_607_360" style="mask-type:luminance" maskUnits="userSpaceOnUse" x="1" y="48" width="217" height="334">
<path d="M145.767 381.153L16.6366 373.213C14.3646 373.089 12.1451 372.482 10.1263 371.432C8.10744 370.383 6.33572 368.914 4.92934 367.126C3.52297 365.337 2.51429 363.269 1.97063 361.059C1.42696 358.85 1.36081 356.55 1.77659 354.313L50.9766 78.6027C51.8144 74.009 54.1189 69.8107 57.5445 66.6374C60.9702 63.4642 65.3323 61.4871 69.9766 61.0027L199.717 48.4527C202.182 48.2194 204.669 48.556 206.984 49.4366C209.299 50.3171 211.381 51.7181 213.068 53.5312C214.756 55.3444 216.004 57.5211 216.716 59.8934C217.429 62.2657 217.586 64.7699 217.177 67.2127L168.177 363.263C167.32 368.49 164.553 373.214 160.413 376.519C156.273 379.824 151.054 381.475 145.767 381.153Z" fill="white"/>
</mask>
<g mask="url(#mask0_607_360)">
<path d="M275.897 225.333L77.0866 228.793C75.874 228.813 74.6718 228.565 73.5666 228.066C72.4614 227.566 71.4806 226.828 70.6947 225.905C69.9087 224.981 69.3371 223.895 69.0211 222.724C68.705 221.553 68.6522 220.327 68.8666 219.133L83.4366 136.133C83.8521 133.844 85.0095 131.756 86.7302 130.191C88.4508 128.626 90.6389 127.67 92.9566 127.473L289.167 114.343C290.737 114.237 292.311 114.488 293.771 115.077C295.231 115.666 296.539 116.577 297.597 117.743C298.655 118.909 299.436 120.299 299.881 121.809C300.326 123.319 300.423 124.91 300.167 126.463L285.717 216.673C285.451 219.079 284.297 221.3 282.481 222.902C280.665 224.503 278.317 225.37 275.897 225.333Z" fill="#F8AB5D"/>
</g>
<mask id="mask1_607_360" style="mask-type:luminance" maskUnits="userSpaceOnUse" x="1" y="48" width="217" height="334">
<path d="M145.767 381.153L16.6366 373.213C14.3646 373.089 12.1451 372.482 10.1263 371.432C8.10744 370.383 6.33572 368.914 4.92934 367.126C3.52297 365.337 2.51429 363.269 1.97063 361.059C1.42696 358.85 1.36081 356.55 1.77659 354.313L50.9766 78.6027C51.8144 74.009 54.1189 69.8107 57.5445 66.6374C60.9702 63.4642 65.3323 61.4871 69.9766 61.0027L199.717 48.4527C202.182 48.2194 204.669 48.556 206.984 49.4366C209.299 50.3171 211.381 51.7181 213.068 53.5312C214.756 55.3444 216.004 57.5211 216.716 59.8934C217.429 62.2657 217.586 64.7699 217.177 67.2127L168.177 363.263C167.32 368.49 164.553 373.214 160.413 376.519C156.273 379.824 151.054 381.475 145.767 381.153Z" fill="white"/>
</mask>
<g mask="url(#mask1_607_360)">
<path d="M253.967 359.033L55.1566 350.383C53.9873 350.319 52.8444 350.01 51.8022 349.476C50.76 348.942 49.8418 348.195 49.1071 347.283C48.3725 346.371 47.8379 345.315 47.538 344.183C47.2382 343.051 47.1798 341.869 47.3666 340.713L62.3666 255.713C62.7977 253.303 64.057 251.12 65.9267 249.541C67.7965 247.962 70.1592 247.085 72.6066 247.063L269.107 245.473C270.624 245.469 272.125 245.794 273.505 246.426C274.884 247.059 276.11 247.983 277.098 249.135C278.086 250.288 278.812 251.64 279.226 253.101C279.64 254.561 279.732 256.093 279.497 257.593L264.777 350.363C264.341 352.877 263.002 355.145 261.011 356.742C259.021 358.338 256.516 359.153 253.967 359.033Z" fill="#F8AB5D"/>
</g>
<path d="M47.9465 95.2029L214.727 81.9229" stroke="#F8AB5D" stroke-width="2.6" stroke-linecap="round" stroke-linejoin="round"/>
<path d="M132.777 75.143L118.497 76.443C117.197 76.593 116.497 75.583 116.617 74.133C116.739 73.4511 117.067 72.8228 117.556 72.333C118.046 71.8431 118.675 71.515 119.357 71.393L133.647 70.093C134.947 69.953 135.807 70.963 135.517 72.403C135.376 73.0767 135.041 73.6946 134.555 74.1812C134.068 74.6679 133.45 75.0021 132.777 75.143Z" fill="#22272E"/>
<path d="M142.297 74.2835C140.997 74.4235 140.137 73.4135 140.427 71.9735C140.546 71.2904 140.873 70.6607 141.363 70.1703C141.854 69.68 142.483 69.3528 143.167 69.2335C144.467 69.0835 145.327 70.0935 145.037 71.5435C144.966 72.2463 144.655 72.9031 144.156 73.4025C143.656 73.9019 142.999 74.2132 142.297 74.2835Z" fill="#22272E"/>
<path d="M303.017 84.0929L248.017 88.2729C247.562 88.322 247.102 88.2637 246.674 88.1027C246.247 87.9416 245.862 87.6823 245.553 87.3457C245.244 87.0091 245.018 86.6046 244.893 86.1646C244.769 85.7247 244.749 85.2617 244.837 84.8129L250.317 51.4829C250.467 50.5003 250.943 49.5966 251.669 48.9167C252.394 48.2368 253.326 47.82 254.317 47.7329L308.707 41.9629C309.242 41.9051 309.783 41.9697 310.289 42.1518C310.796 42.3339 311.254 42.6288 311.63 43.0141C312.005 43.3995 312.289 43.8651 312.458 44.376C312.627 44.8869 312.678 45.4295 312.607 45.9629L307.267 80.3029C307.018 81.2869 306.48 82.1739 305.723 82.8494C304.965 83.5249 304.023 83.958 303.017 84.0929Z" stroke="#6DAFA7" stroke-width="2.6" stroke-linecap="round" stroke-linejoin="round"/>
<path d="M251.807 48.6026L275.717 64.0326C276.356 64.4583 277.108 64.6854 277.877 64.6854C278.645 64.6854 279.397 64.4583 280.037 64.0326L311.207 42.6826" stroke="#6DAFA7" stroke-width="2.6" stroke-linecap="round" stroke-linejoin="round"/>
<path d="M55.0166 146.413L9.85655 148.873L3.21655 153.193C2.87361 153.422 2.47041 153.542 2.05852 153.54C1.64663 153.538 1.24478 153.412 0.904397 153.181C0.564009 152.949 0.300553 152.62 0.147736 152.238C-0.00508027 151.855 -0.0403092 151.436 0.0465552 151.033L7.11655 111.793C7.38478 110.263 8.15429 108.866 9.30391 107.821C10.4535 106.777 11.9179 106.144 13.4666 106.023L60.4666 102.413C61.1843 102.347 61.9077 102.447 62.5805 102.706C63.2533 102.965 63.8574 103.375 64.3459 103.905C64.8344 104.435 65.1941 105.071 65.3971 105.763C65.6001 106.454 65.641 107.183 65.5166 107.893L59.4566 142.233C59.3012 143.331 58.7768 144.343 57.9698 145.102C57.1629 145.862 56.1213 146.324 55.0166 146.413Z" fill="#6DAFA7"/>
<path d="M15.9165 117.563L54.0065 114.823" stroke="#22272E" stroke-width="2.6" stroke-linecap="round" stroke-linejoin="round"/>
<path d="M14.1865 127.223L52.2765 124.633" stroke="#22272E" stroke-width="2.6" stroke-linecap="round" stroke-linejoin="round"/>
<path d="M12.4565 136.753L32.3665 135.593" stroke="#22272E" stroke-width="2.6" stroke-linecap="round" stroke-linejoin="round"/>
<path d="M265.217 216.533L66.4165 220.033C65.2036 220.053 64.0012 219.805 62.8957 219.306C61.7902 218.806 60.8088 218.068 60.0221 217.145C59.2354 216.222 58.6629 215.136 58.3455 213.965C58.0281 212.794 57.9738 211.567 58.1865 210.373L72.7565 127.373C73.1725 125.083 74.3314 122.994 76.0541 121.428C77.7767 119.863 79.9671 118.909 82.2865 118.713L278.497 105.583C280.067 105.478 281.641 105.729 283.101 106.317C284.561 106.906 285.869 107.818 286.927 108.983C287.985 110.149 288.766 111.539 289.211 113.049C289.656 114.559 289.753 116.15 289.497 117.703L275.067 207.873C274.779 210.276 273.614 212.488 271.797 214.086C269.979 215.684 267.636 216.555 265.217 216.533Z" fill="#22272E"/>
<path d="M117.917 153.773C116.917 159.693 111.717 164.773 106.377 165.023C101.037 165.273 97.5766 160.703 98.5866 154.783C99.5966 148.863 104.787 143.783 110.127 143.533C115.467 143.283 118.927 147.863 117.917 153.773Z" fill="#FFE779"/>
<path d="M114.167 191.723L90.5065 192.443C89.7522 192.473 89.0007 192.335 88.307 192.037C87.6133 191.739 86.995 191.29 86.4973 190.723C85.9997 190.155 85.6354 189.483 85.4311 188.757C85.2267 188.03 85.1876 187.267 85.3165 186.523L85.7465 183.923C87.6165 173.253 96.8565 164.163 106.517 163.923C116.187 163.493 122.677 172.003 120.807 182.823L120.227 186.573C119.934 187.983 119.179 189.256 118.081 190.189C116.983 191.122 115.606 191.662 114.167 191.723Z" fill="#FFE779"/>
<path d="M243.867 154.783L149.657 159.113C149.192 159.149 148.725 159.077 148.293 158.901C147.861 158.726 147.475 158.452 147.168 158.102C146.86 157.751 146.638 157.334 146.52 156.883C146.402 156.432 146.39 155.959 146.487 155.503L147.487 149.153C147.673 148.115 148.2 147.17 148.984 146.465C149.768 145.76 150.765 145.338 151.817 145.263L246.167 140.353C246.632 140.316 247.098 140.389 247.531 140.564C247.963 140.74 248.348 141.014 248.655 141.364C248.963 141.715 249.185 142.132 249.303 142.583C249.421 143.034 249.433 143.507 249.337 143.963L248.187 150.893C248.047 151.949 247.535 152.921 246.743 153.634C245.951 154.347 244.932 154.754 243.867 154.783Z" fill="#6DAFA7"/>
<path d="M148.647 176.133L150.087 180.613L154.567 181.333L150.667 185.223L150.377 190.273L146.627 188.253L142.007 190.563L143.457 185.513L140.857 181.913L145.617 180.753L148.647 176.133Z" fill="#FFE779"/>
<path d="M170.287 175.413L171.877 179.883L176.347 180.613L172.457 184.503L172.307 189.553L168.267 187.533L163.657 189.843L165.097 184.793L162.497 181.043L167.257 180.033L170.287 175.413Z" fill="#FFE779"/>
<path d="M192.507 174.553L194.097 179.023L198.707 179.883L194.667 183.783L194.527 188.973L190.487 186.813L185.727 189.263L187.167 184.073L184.427 180.323L189.477 179.163L192.507 174.553Z" fill="#FFE779"/>
<path d="M215.157 173.683L216.747 178.303L221.507 179.023L217.467 183.063L217.327 188.253L213.137 186.093L208.237 188.543L209.817 183.203L206.937 179.603L211.987 178.443L215.157 173.683Z" fill="#FFE779"/>
<path d="M238.387 172.813L239.977 177.433L244.877 178.303L240.697 182.193L240.547 187.533L236.217 185.373L231.317 187.823L232.907 182.483L230.017 178.733L235.067 177.583L238.387 172.813Z" fill="#FFE779"/>
<path d="M243.147 350.273L44.4866 341.473C43.3162 341.412 42.1717 341.106 41.1279 340.573C40.0842 340.04 39.1646 339.292 38.4294 338.38C37.6941 337.467 37.1598 336.409 36.8612 335.276C36.5626 334.143 36.5065 332.959 36.6966 331.803L51.6966 246.803C52.1275 244.393 53.3863 242.208 55.2558 240.627C57.1254 239.046 59.4883 238.167 61.9366 238.143L258.437 236.553C259.955 236.547 261.456 236.871 262.837 237.503C264.217 238.135 265.444 239.059 266.432 240.212C267.42 241.365 268.146 242.718 268.56 244.179C268.973 245.64 269.064 247.173 268.827 248.673L254.117 341.473C253.676 344.025 252.317 346.328 250.297 347.949C248.277 349.569 245.734 350.396 243.147 350.273Z" fill="#22272E"/>
<path d="M96.7166 276.553C95.7166 282.613 90.5166 287.553 85.0366 287.373C79.5566 287.193 76.2366 282.373 77.2466 276.263C78.2566 270.153 83.4466 265.443 88.7866 265.443C94.1266 265.443 97.8666 270.493 96.7166 276.553Z" fill="#FFE779"/>
<path d="M92.5265 315.503L68.8665 314.783C68.1443 314.746 67.4375 314.561 66.791 314.237C66.1444 313.913 65.5722 313.458 65.1105 312.902C64.6489 312.345 64.308 311.699 64.1093 311.003C63.9106 310.308 63.8586 309.579 63.9565 308.863L64.5365 305.863C66.4165 294.863 75.6465 286.233 85.3165 286.383C94.9765 286.523 101.466 295.613 99.4465 306.723L98.8765 310.333C98.6134 311.813 97.8275 313.149 96.662 314.098C95.4965 315.046 94.0289 315.545 92.5265 315.503Z" fill="#FFE779"/>
<path d="M222.377 285.493L128.157 284.193C127.713 284.183 127.276 284.078 126.876 283.885C126.477 283.692 126.123 283.416 125.838 283.074C125.554 282.733 125.346 282.335 125.229 281.907C125.111 281.479 125.086 281.031 125.157 280.593L126.307 273.953C126.486 272.86 127.05 271.867 127.897 271.153C128.744 270.44 129.819 270.053 130.927 270.063L225.277 270.783C225.72 270.793 226.157 270.898 226.557 271.091C226.957 271.284 227.31 271.56 227.595 271.901C227.879 272.242 228.087 272.64 228.204 273.068C228.322 273.496 228.347 273.944 228.277 274.383L227.127 281.603C226.88 282.687 226.279 283.658 225.419 284.363C224.559 285.067 223.488 285.465 222.377 285.493Z" fill="#6DAFA7"/>
<path d="M127.296 301.653L128.736 306.273L133.206 307.283L129.316 311.033L129.176 316.223L125.276 313.773L120.656 315.933L122.096 310.743L119.646 306.993L124.266 306.123L127.296 301.653Z" fill="#FFE779"/>
<path d="M149.076 302.083L150.526 306.703L155.136 307.853L151.096 311.613L150.956 316.803L146.916 314.493L142.296 316.663L143.746 311.463L141.146 307.423L146.056 306.703L149.076 302.083Z" fill="#FFE779"/>
<path d="M171.297 302.663L172.737 307.283L177.507 308.433L173.467 312.183L173.177 317.523L169.137 315.073L164.377 317.233L165.957 312.043L163.217 308.003L168.127 307.283L171.297 302.663Z" fill="#FFE779"/>
<path d="M193.947 303.093L195.537 307.853L200.297 309.013L196.117 312.913L195.967 318.243L191.787 315.793L186.877 317.953L188.467 312.623L185.727 308.583L190.777 307.713L193.947 303.093Z" fill="#63737A"/>
<path d="M217.036 303.673L218.766 308.433L223.526 309.593L219.346 313.483L219.197 318.963L215.016 316.373L209.966 318.683L211.546 313.193L208.667 309.303L213.857 308.433L217.036 303.673Z" fill="#63737A"/>
<path d="M239.717 17.7232C238.946 16.8693 237.939 16.2631 236.823 15.9812C235.708 15.6992 234.534 15.7542 233.45 16.1391C232.366 16.524 231.42 17.2216 230.732 18.1437C230.044 19.0658 229.645 20.1712 229.585 21.32C229.525 22.4689 229.807 23.6098 230.395 24.5986C230.983 25.5874 231.851 26.3798 232.889 26.8756C233.927 27.3713 235.089 27.5483 236.228 27.3841C237.366 27.22 238.431 26.722 239.287 25.9532C239.862 25.4453 240.33 24.8277 240.664 24.1367C240.998 23.4456 241.19 22.6949 241.23 21.9285C241.27 21.1621 241.157 20.3954 240.897 19.6733C240.637 18.9512 240.236 18.2882 239.717 17.7232Z" fill="#22272E"/>
<path d="M231.897 4.16301L230.897 3.01301C230.085 2.11531 229.103 1.38758 228.008 0.871947C226.913 0.356317 225.727 0.0630375 224.518 0.00909352C223.309 -0.0448505 222.101 0.141612 220.964 0.557684C219.828 0.973756 218.785 1.61117 217.897 2.43301C216.998 3.24471 216.27 4.22676 215.755 5.32213C215.239 6.41751 214.947 7.60438 214.894 8.81384C214.841 10.0233 215.028 11.2312 215.446 12.3675C215.864 13.5038 216.503 14.5458 217.327 15.433L218.327 16.593C219.501 17.9108 220.342 19.492 220.777 21.203C221.067 22.503 221.497 24.093 221.927 25.533C222.107 26.2545 222.471 26.9171 222.984 27.4566C223.496 27.9962 224.138 28.3943 224.849 28.6126C225.56 28.8308 226.316 28.8618 227.042 28.7024C227.769 28.5431 228.442 28.1988 228.997 27.703L235.487 21.783L241.987 15.873C242.539 15.3757 242.952 14.7433 243.185 14.0379C243.419 13.3325 243.465 12.5784 243.319 11.8499C243.172 11.1214 242.839 10.4435 242.351 9.88296C241.863 9.32242 241.238 8.89853 240.537 8.65301C239.097 8.08301 237.657 7.65301 236.357 7.21301C234.711 6.45024 233.204 5.41956 231.897 4.16301Z" fill="#6DAFA7"/>
</svg>
